<mxfile host="app.diagrams.net" modified="2023-09-15T01:32:35.884Z" agent="Mozilla/5.0 (Windows NT 10.0; Win64; x64) AppleWebKit/537.36 (KHTML, like Gecko) Chrome/115.0.0.0 Safari/537.36" etag="jslEg0BmBQsc-oFIrh8D" version="21.7.5" type="github">
  <diagram name="Page-1" id="0Hc2ZSXkxQ6GikdhPmCp">
    <mxGraphModel dx="5350" dy="2730" grid="1" gridSize="10" guides="1" tooltips="1" connect="1" arrows="1" fold="1" page="1" pageScale="1" pageWidth="850" pageHeight="1100" math="0" shadow="0">
      <root>
        <mxCell id="0" />
        <mxCell id="1" parent="0" />
        <mxCell id="q5C7g-lwRiDyIhiuwjWe-39" style="rounded=0;orthogonalLoop=1;jettySize=auto;html=1;entryX=1;entryY=0.5;entryDx=0;entryDy=0;exitX=0;exitY=0.5;exitDx=0;exitDy=0;" parent="1" source="q5C7g-lwRiDyIhiuwjWe-14" target="q5C7g-lwRiDyIhiuwjWe-26" edge="1">
          <mxGeometry relative="1" as="geometry" />
        </mxCell>
        <mxCell id="q5C7g-lwRiDyIhiuwjWe-40" style="rounded=0;orthogonalLoop=1;jettySize=auto;html=1;entryX=1;entryY=0.5;entryDx=0;entryDy=0;" parent="1" source="q5C7g-lwRiDyIhiuwjWe-14" target="q5C7g-lwRiDyIhiuwjWe-27" edge="1">
          <mxGeometry relative="1" as="geometry" />
        </mxCell>
        <mxCell id="q5C7g-lwRiDyIhiuwjWe-41" style="rounded=0;orthogonalLoop=1;jettySize=auto;html=1;entryX=1;entryY=0.5;entryDx=0;entryDy=0;exitX=0;exitY=0.5;exitDx=0;exitDy=0;" parent="1" source="q5C7g-lwRiDyIhiuwjWe-14" target="q5C7g-lwRiDyIhiuwjWe-28" edge="1">
          <mxGeometry relative="1" as="geometry" />
        </mxCell>
        <mxCell id="q5C7g-lwRiDyIhiuwjWe-53" style="rounded=0;orthogonalLoop=1;jettySize=auto;html=1;entryX=1;entryY=0.5;entryDx=0;entryDy=0;exitX=0;exitY=0.5;exitDx=0;exitDy=0;" parent="1" source="q5C7g-lwRiDyIhiuwjWe-14" target="q5C7g-lwRiDyIhiuwjWe-46" edge="1">
          <mxGeometry relative="1" as="geometry" />
        </mxCell>
        <mxCell id="q5C7g-lwRiDyIhiuwjWe-54" style="rounded=0;orthogonalLoop=1;jettySize=auto;html=1;entryX=1;entryY=0.5;entryDx=0;entryDy=0;exitX=0;exitY=0.5;exitDx=0;exitDy=0;" parent="1" source="q5C7g-lwRiDyIhiuwjWe-14" target="q5C7g-lwRiDyIhiuwjWe-47" edge="1">
          <mxGeometry relative="1" as="geometry" />
        </mxCell>
        <mxCell id="q5C7g-lwRiDyIhiuwjWe-14" value="" style="rounded=0;whiteSpace=wrap;html=1;opacity=40;" parent="1" vertex="1">
          <mxGeometry x="900" y="365" width="120" height="130" as="geometry" />
        </mxCell>
        <mxCell id="q5C7g-lwRiDyIhiuwjWe-15" style="rounded=0;orthogonalLoop=1;jettySize=auto;html=1;exitX=1;exitY=0.5;exitDx=0;exitDy=0;entryX=0;entryY=0.5;entryDx=0;entryDy=0;" parent="1" source="q5C7g-lwRiDyIhiuwjWe-13" target="q5C7g-lwRiDyIhiuwjWe-8" edge="1">
          <mxGeometry relative="1" as="geometry" />
        </mxCell>
        <mxCell id="q5C7g-lwRiDyIhiuwjWe-20" style="rounded=0;orthogonalLoop=1;jettySize=auto;html=1;entryX=0;entryY=0.5;entryDx=0;entryDy=0;exitX=1;exitY=0.5;exitDx=0;exitDy=0;" parent="1" source="q5C7g-lwRiDyIhiuwjWe-13" target="q5C7g-lwRiDyIhiuwjWe-17" edge="1">
          <mxGeometry relative="1" as="geometry">
            <mxPoint x="205" y="410" as="sourcePoint" />
          </mxGeometry>
        </mxCell>
        <mxCell id="q5C7g-lwRiDyIhiuwjWe-36" style="rounded=0;orthogonalLoop=1;jettySize=auto;html=1;entryX=0;entryY=0.5;entryDx=0;entryDy=0;exitX=1;exitY=0.5;exitDx=0;exitDy=0;" parent="1" source="q5C7g-lwRiDyIhiuwjWe-13" target="q5C7g-lwRiDyIhiuwjWe-34" edge="1">
          <mxGeometry relative="1" as="geometry" />
        </mxCell>
        <mxCell id="q5C7g-lwRiDyIhiuwjWe-50" style="rounded=0;orthogonalLoop=1;jettySize=auto;html=1;entryX=0;entryY=0.5;entryDx=0;entryDy=0;exitX=1;exitY=0.5;exitDx=0;exitDy=0;" parent="1" source="q5C7g-lwRiDyIhiuwjWe-13" target="q5C7g-lwRiDyIhiuwjWe-46" edge="1">
          <mxGeometry relative="1" as="geometry" />
        </mxCell>
        <mxCell id="q5C7g-lwRiDyIhiuwjWe-51" style="rounded=0;orthogonalLoop=1;jettySize=auto;html=1;entryX=0;entryY=0.5;entryDx=0;entryDy=0;exitX=1;exitY=0.5;exitDx=0;exitDy=0;" parent="1" source="q5C7g-lwRiDyIhiuwjWe-13" target="q5C7g-lwRiDyIhiuwjWe-47" edge="1">
          <mxGeometry relative="1" as="geometry" />
        </mxCell>
        <mxCell id="q5C7g-lwRiDyIhiuwjWe-52" style="rounded=0;orthogonalLoop=1;jettySize=auto;html=1;entryX=0;entryY=0.5;entryDx=0;entryDy=0;exitX=1;exitY=0.5;exitDx=0;exitDy=0;" parent="1" source="q5C7g-lwRiDyIhiuwjWe-13" target="q5C7g-lwRiDyIhiuwjWe-48" edge="1">
          <mxGeometry relative="1" as="geometry" />
        </mxCell>
        <mxCell id="q5C7g-lwRiDyIhiuwjWe-13" value="" style="rounded=0;whiteSpace=wrap;html=1;opacity=40;" parent="1" vertex="1">
          <mxGeometry x="80" y="365" width="120" height="130" as="geometry" />
        </mxCell>
        <mxCell id="q5C7g-lwRiDyIhiuwjWe-3" value="" style="rounded=0;whiteSpace=wrap;html=1;opacity=40;" parent="1" vertex="1">
          <mxGeometry x="280" y="240" width="560" height="600" as="geometry" />
        </mxCell>
        <mxCell id="q5C7g-lwRiDyIhiuwjWe-1" value="Customer" style="shape=umlActor;verticalLabelPosition=bottom;verticalAlign=top;html=1;outlineConnect=0;" parent="1" vertex="1">
          <mxGeometry x="125" y="395" width="30" height="60" as="geometry" />
        </mxCell>
        <mxCell id="q5C7g-lwRiDyIhiuwjWe-5" value="Admin" style="shape=umlActor;verticalLabelPosition=bottom;verticalAlign=top;html=1;outlineConnect=0;" parent="1" vertex="1">
          <mxGeometry x="945" y="400" width="30" height="60" as="geometry" />
        </mxCell>
        <mxCell id="q5C7g-lwRiDyIhiuwjWe-8" value="View Items" style="ellipse;whiteSpace=wrap;html=1;" parent="1" vertex="1">
          <mxGeometry x="340" y="270" width="120" height="70" as="geometry" />
        </mxCell>
        <mxCell id="q5C7g-lwRiDyIhiuwjWe-17" value="Search Items" style="ellipse;whiteSpace=wrap;html=1;" parent="1" vertex="1">
          <mxGeometry x="340" y="350" width="120" height="70" as="geometry" />
        </mxCell>
        <mxCell id="q5C7g-lwRiDyIhiuwjWe-18" value="Cart Manager" style="ellipse;whiteSpace=wrap;html=1;" parent="1" vertex="1">
          <mxGeometry x="340" y="515" width="120" height="70" as="geometry" />
        </mxCell>
        <mxCell id="q5C7g-lwRiDyIhiuwjWe-23" style="rounded=0;orthogonalLoop=1;jettySize=auto;html=1;exitX=1;exitY=0.5;exitDx=0;exitDy=0;entryX=0;entryY=0.5;entryDx=0;entryDy=0;" parent="1" source="q5C7g-lwRiDyIhiuwjWe-13" target="q5C7g-lwRiDyIhiuwjWe-18" edge="1">
          <mxGeometry relative="1" as="geometry">
            <mxPoint x="200" y="480" as="sourcePoint" />
            <mxPoint x="340" y="390" as="targetPoint" />
          </mxGeometry>
        </mxCell>
        <mxCell id="q5C7g-lwRiDyIhiuwjWe-26" value="Items Manager" style="ellipse;whiteSpace=wrap;html=1;" parent="1" vertex="1">
          <mxGeometry x="650" y="300" width="120" height="70" as="geometry" />
        </mxCell>
        <mxCell id="q5C7g-lwRiDyIhiuwjWe-27" value="Order Manage" style="ellipse;whiteSpace=wrap;html=1;" parent="1" vertex="1">
          <mxGeometry x="650" y="395" width="120" height="70" as="geometry" />
        </mxCell>
        <mxCell id="q5C7g-lwRiDyIhiuwjWe-28" value="Collect Payments" style="ellipse;whiteSpace=wrap;html=1;" parent="1" vertex="1">
          <mxGeometry x="650" y="490" width="120" height="70" as="geometry" />
        </mxCell>
        <mxCell id="q5C7g-lwRiDyIhiuwjWe-44" style="rounded=0;orthogonalLoop=1;jettySize=auto;html=1;dashed=1;dashPattern=8 8;entryX=0;entryY=0.5;entryDx=0;entryDy=0;exitX=1;exitY=0.5;exitDx=0;exitDy=0;" parent="1" source="q5C7g-lwRiDyIhiuwjWe-34" target="q5C7g-lwRiDyIhiuwjWe-27" edge="1">
          <mxGeometry relative="1" as="geometry" />
        </mxCell>
        <mxCell id="q5C7g-lwRiDyIhiuwjWe-34" value="Make Order" style="ellipse;whiteSpace=wrap;html=1;" parent="1" vertex="1">
          <mxGeometry x="340" y="430" width="120" height="70" as="geometry" />
        </mxCell>
        <mxCell id="q5C7g-lwRiDyIhiuwjWe-45" value="&amp;lt;&amp;lt;extend&amp;gt;&amp;gt;" style="text;html=1;strokeColor=none;fillColor=none;align=center;verticalAlign=middle;whiteSpace=wrap;rounded=0;direction=south;rotation=-15;" parent="1" vertex="1">
          <mxGeometry x="520" y="410" width="30" height="60" as="geometry" />
        </mxCell>
        <mxCell id="q5C7g-lwRiDyIhiuwjWe-46" value="Login, Logout From Shop System" style="rounded=0;whiteSpace=wrap;html=1;" parent="1" vertex="1">
          <mxGeometry x="360" y="620" width="400" height="60" as="geometry" />
        </mxCell>
        <mxCell id="q5C7g-lwRiDyIhiuwjWe-47" value="Update Profile" style="rounded=0;whiteSpace=wrap;html=1;" parent="1" vertex="1">
          <mxGeometry x="360" y="680" width="400" height="60" as="geometry" />
        </mxCell>
        <mxCell id="q5C7g-lwRiDyIhiuwjWe-48" value="Register For New Account" style="rounded=0;whiteSpace=wrap;html=1;" parent="1" vertex="1">
          <mxGeometry x="360" y="740" width="400" height="60" as="geometry" />
        </mxCell>
        <mxCell id="q5C7g-lwRiDyIhiuwjWe-56" value="Use - Case Diagram Of Whole System" style="rounded=0;whiteSpace=wrap;html=1;" parent="1" vertex="1">
          <mxGeometry x="280" y="180" width="560" height="60" as="geometry" />
        </mxCell>
        <mxCell id="S2lK1irbdkIM5nG1B2_A-1" value="" style="rounded=0;whiteSpace=wrap;html=1;opacity=40;" parent="1" vertex="1">
          <mxGeometry x="280" y="1010" width="720" height="670" as="geometry" />
        </mxCell>
        <mxCell id="S2lK1irbdkIM5nG1B2_A-2" value="View Items Function" style="rounded=0;whiteSpace=wrap;html=1;" parent="1" vertex="1">
          <mxGeometry x="280" y="950" width="720" height="60" as="geometry" />
        </mxCell>
        <mxCell id="S2lK1irbdkIM5nG1B2_A-7" style="edgeStyle=orthogonalEdgeStyle;rounded=0;orthogonalLoop=1;jettySize=auto;html=1;" parent="1" source="S2lK1irbdkIM5nG1B2_A-3" target="S2lK1irbdkIM5nG1B2_A-5" edge="1">
          <mxGeometry relative="1" as="geometry" />
        </mxCell>
        <mxCell id="S2lK1irbdkIM5nG1B2_A-3" value="" style="rounded=0;whiteSpace=wrap;html=1;opacity=40;" parent="1" vertex="1">
          <mxGeometry x="80" y="1280" width="120" height="130" as="geometry" />
        </mxCell>
        <mxCell id="S2lK1irbdkIM5nG1B2_A-4" value="Customer" style="shape=umlActor;verticalLabelPosition=bottom;verticalAlign=top;html=1;outlineConnect=0;" parent="1" vertex="1">
          <mxGeometry x="125" y="1315" width="30" height="60" as="geometry" />
        </mxCell>
        <mxCell id="S2lK1irbdkIM5nG1B2_A-5" value="View Items" style="ellipse;whiteSpace=wrap;html=1;" parent="1" vertex="1">
          <mxGeometry x="340" y="1310" width="120" height="70" as="geometry" />
        </mxCell>
        <mxCell id="S2lK1irbdkIM5nG1B2_A-20" style="rounded=0;orthogonalLoop=1;jettySize=auto;html=1;entryX=1;entryY=0.5;entryDx=0;entryDy=0;exitX=0;exitY=0.5;exitDx=0;exitDy=0;dashed=1;" parent="1" source="S2lK1irbdkIM5nG1B2_A-9" edge="1">
          <mxGeometry relative="1" as="geometry">
            <mxPoint x="542.2997735747426" y="1207.2279413071303" as="sourcePoint" />
            <mxPoint x="400" y="1310" as="targetPoint" />
          </mxGeometry>
        </mxCell>
        <mxCell id="S2lK1irbdkIM5nG1B2_A-9" value="View Products" style="ellipse;whiteSpace=wrap;html=1;" parent="1" vertex="1">
          <mxGeometry x="590" y="1180" width="120" height="70" as="geometry" />
        </mxCell>
        <mxCell id="S2lK1irbdkIM5nG1B2_A-22" style="rounded=0;orthogonalLoop=1;jettySize=auto;html=1;entryX=1;entryY=0.5;entryDx=0;entryDy=0;exitX=0;exitY=0.5;exitDx=0;exitDy=0;dashed=1;" parent="1" source="S2lK1irbdkIM5nG1B2_A-11" target="S2lK1irbdkIM5nG1B2_A-5" edge="1">
          <mxGeometry relative="1" as="geometry" />
        </mxCell>
        <mxCell id="S2lK1irbdkIM5nG1B2_A-11" value="View Cart - Items" style="ellipse;whiteSpace=wrap;html=1;" parent="1" vertex="1">
          <mxGeometry x="590" y="1310" width="120" height="70" as="geometry" />
        </mxCell>
        <mxCell id="S2lK1irbdkIM5nG1B2_A-21" style="rounded=0;orthogonalLoop=1;jettySize=auto;html=1;entryX=0.5;entryY=1;entryDx=0;entryDy=0;exitX=0;exitY=0.5;exitDx=0;exitDy=0;dashed=1;" parent="1" source="S2lK1irbdkIM5nG1B2_A-12" target="S2lK1irbdkIM5nG1B2_A-5" edge="1">
          <mxGeometry relative="1" as="geometry" />
        </mxCell>
        <mxCell id="S2lK1irbdkIM5nG1B2_A-12" value="View Coupon ?" style="ellipse;whiteSpace=wrap;html=1;" parent="1" vertex="1">
          <mxGeometry x="590" y="1430" width="120" height="70" as="geometry" />
        </mxCell>
        <mxCell id="aYBez-xFLwSCWmGJiX5v-5" style="rounded=0;orthogonalLoop=1;jettySize=auto;html=1;entryX=1;entryY=0.5;entryDx=0;entryDy=0;dashed=1;" edge="1" parent="1" source="aYBez-xFLwSCWmGJiX5v-1" target="S2lK1irbdkIM5nG1B2_A-9">
          <mxGeometry relative="1" as="geometry" />
        </mxCell>
        <mxCell id="aYBez-xFLwSCWmGJiX5v-1" value="View Category" style="ellipse;whiteSpace=wrap;html=1;" vertex="1" parent="1">
          <mxGeometry x="850" y="1220" width="120" height="70" as="geometry" />
        </mxCell>
        <mxCell id="aYBez-xFLwSCWmGJiX5v-4" style="rounded=0;orthogonalLoop=1;jettySize=auto;html=1;entryX=1;entryY=0.5;entryDx=0;entryDy=0;dashed=1;" edge="1" parent="1" source="aYBez-xFLwSCWmGJiX5v-2" target="S2lK1irbdkIM5nG1B2_A-9">
          <mxGeometry relative="1" as="geometry" />
        </mxCell>
        <mxCell id="aYBez-xFLwSCWmGJiX5v-2" value="View Each Products" style="ellipse;whiteSpace=wrap;html=1;" vertex="1" parent="1">
          <mxGeometry x="850" y="1120" width="120" height="70" as="geometry" />
        </mxCell>
        <mxCell id="aYBez-xFLwSCWmGJiX5v-6" value="&amp;lt;&amp;lt;extend&amp;gt;&amp;gt;" style="text;html=1;strokeColor=none;fillColor=none;align=center;verticalAlign=middle;whiteSpace=wrap;rounded=0;direction=south;rotation=-15;" vertex="1" parent="1">
          <mxGeometry x="480" y="1210" width="30" height="60" as="geometry" />
        </mxCell>
        <mxCell id="aYBez-xFLwSCWmGJiX5v-8" value="&amp;lt;&amp;lt;extend&amp;gt;&amp;gt;" style="text;html=1;strokeColor=none;fillColor=none;align=center;verticalAlign=middle;whiteSpace=wrap;rounded=0;direction=south;rotation=0;" vertex="1" parent="1">
          <mxGeometry x="520" y="1290" width="30" height="60" as="geometry" />
        </mxCell>
        <mxCell id="aYBez-xFLwSCWmGJiX5v-9" value="&amp;lt;&amp;lt;extend&amp;gt;&amp;gt;" style="text;html=1;strokeColor=none;fillColor=none;align=center;verticalAlign=middle;whiteSpace=wrap;rounded=0;direction=south;rotation=30;" vertex="1" parent="1">
          <mxGeometry x="520" y="1390" width="30" height="60" as="geometry" />
        </mxCell>
        <mxCell id="aYBez-xFLwSCWmGJiX5v-10" value="&amp;lt;&amp;lt;extend&amp;gt;&amp;gt;" style="text;html=1;strokeColor=none;fillColor=none;align=center;verticalAlign=middle;whiteSpace=wrap;rounded=0;direction=south;rotation=-30;" vertex="1" parent="1">
          <mxGeometry x="780" y="1140" width="30" height="60" as="geometry" />
        </mxCell>
        <mxCell id="aYBez-xFLwSCWmGJiX5v-11" value="&amp;lt;&amp;lt;extend&amp;gt;&amp;gt;" style="text;html=1;strokeColor=none;fillColor=none;align=center;verticalAlign=middle;whiteSpace=wrap;rounded=0;direction=south;rotation=15;" vertex="1" parent="1">
          <mxGeometry x="790" y="1185" width="30" height="60" as="geometry" />
        </mxCell>
        <mxCell id="aYBez-xFLwSCWmGJiX5v-39" value="" style="shape=table;startSize=0;container=1;collapsible=0;childLayout=tableLayout;" vertex="1" parent="1">
          <mxGeometry x="1160" y="950" width="940" height="730" as="geometry" />
        </mxCell>
        <mxCell id="aYBez-xFLwSCWmGJiX5v-40" value="" style="shape=tableRow;horizontal=0;startSize=0;swimlaneHead=0;swimlaneBody=0;strokeColor=inherit;top=0;left=0;bottom=0;right=0;collapsible=0;dropTarget=0;fillColor=none;points=[[0,0.5],[1,0.5]];portConstraint=eastwest;" vertex="1" parent="aYBez-xFLwSCWmGJiX5v-39">
          <mxGeometry width="940" height="91" as="geometry" />
        </mxCell>
        <mxCell id="aYBez-xFLwSCWmGJiX5v-41" value="Use-Case Name" style="shape=partialRectangle;html=1;whiteSpace=wrap;connectable=0;strokeColor=inherit;overflow=hidden;fillColor=none;top=0;left=0;bottom=0;right=0;pointerEvents=1;" vertex="1" parent="aYBez-xFLwSCWmGJiX5v-40">
          <mxGeometry width="226" height="91" as="geometry">
            <mxRectangle width="226" height="91" as="alternateBounds" />
          </mxGeometry>
        </mxCell>
        <mxCell id="aYBez-xFLwSCWmGJiX5v-42" value="" style="shape=partialRectangle;html=1;whiteSpace=wrap;connectable=0;strokeColor=inherit;overflow=hidden;fillColor=none;top=0;left=0;bottom=0;right=0;pointerEvents=1;" vertex="1" parent="aYBez-xFLwSCWmGJiX5v-40">
          <mxGeometry x="226" width="714" height="91" as="geometry">
            <mxRectangle width="714" height="91" as="alternateBounds" />
          </mxGeometry>
        </mxCell>
        <mxCell id="aYBez-xFLwSCWmGJiX5v-43" value="" style="shape=tableRow;horizontal=0;startSize=0;swimlaneHead=0;swimlaneBody=0;strokeColor=inherit;top=0;left=0;bottom=0;right=0;collapsible=0;dropTarget=0;fillColor=none;points=[[0,0.5],[1,0.5]];portConstraint=eastwest;" vertex="1" parent="aYBez-xFLwSCWmGJiX5v-39">
          <mxGeometry y="91" width="940" height="92" as="geometry" />
        </mxCell>
        <mxCell id="aYBez-xFLwSCWmGJiX5v-44" value="Actor" style="shape=partialRectangle;html=1;whiteSpace=wrap;connectable=0;strokeColor=inherit;overflow=hidden;fillColor=none;top=0;left=0;bottom=0;right=0;pointerEvents=1;" vertex="1" parent="aYBez-xFLwSCWmGJiX5v-43">
          <mxGeometry width="226" height="92" as="geometry">
            <mxRectangle width="226" height="92" as="alternateBounds" />
          </mxGeometry>
        </mxCell>
        <mxCell id="aYBez-xFLwSCWmGJiX5v-45" value="" style="shape=partialRectangle;html=1;whiteSpace=wrap;connectable=0;strokeColor=inherit;overflow=hidden;fillColor=none;top=0;left=0;bottom=0;right=0;pointerEvents=1;" vertex="1" parent="aYBez-xFLwSCWmGJiX5v-43">
          <mxGeometry x="226" width="714" height="92" as="geometry">
            <mxRectangle width="714" height="92" as="alternateBounds" />
          </mxGeometry>
        </mxCell>
        <mxCell id="aYBez-xFLwSCWmGJiX5v-46" value="" style="shape=tableRow;horizontal=0;startSize=0;swimlaneHead=0;swimlaneBody=0;strokeColor=inherit;top=0;left=0;bottom=0;right=0;collapsible=0;dropTarget=0;fillColor=none;points=[[0,0.5],[1,0.5]];portConstraint=eastwest;" vertex="1" parent="aYBez-xFLwSCWmGJiX5v-39">
          <mxGeometry y="183" width="940" height="91" as="geometry" />
        </mxCell>
        <mxCell id="aYBez-xFLwSCWmGJiX5v-47" value="Description" style="shape=partialRectangle;html=1;whiteSpace=wrap;connectable=0;strokeColor=inherit;overflow=hidden;fillColor=none;top=0;left=0;bottom=0;right=0;pointerEvents=1;" vertex="1" parent="aYBez-xFLwSCWmGJiX5v-46">
          <mxGeometry width="226" height="91" as="geometry">
            <mxRectangle width="226" height="91" as="alternateBounds" />
          </mxGeometry>
        </mxCell>
        <mxCell id="aYBez-xFLwSCWmGJiX5v-48" value="" style="shape=partialRectangle;html=1;whiteSpace=wrap;connectable=0;strokeColor=inherit;overflow=hidden;fillColor=none;top=0;left=0;bottom=0;right=0;pointerEvents=1;" vertex="1" parent="aYBez-xFLwSCWmGJiX5v-46">
          <mxGeometry x="226" width="714" height="91" as="geometry">
            <mxRectangle width="714" height="91" as="alternateBounds" />
          </mxGeometry>
        </mxCell>
        <mxCell id="aYBez-xFLwSCWmGJiX5v-49" value="" style="shape=tableRow;horizontal=0;startSize=0;swimlaneHead=0;swimlaneBody=0;strokeColor=inherit;top=0;left=0;bottom=0;right=0;collapsible=0;dropTarget=0;fillColor=none;points=[[0,0.5],[1,0.5]];portConstraint=eastwest;" vertex="1" parent="aYBez-xFLwSCWmGJiX5v-39">
          <mxGeometry y="274" width="940" height="91" as="geometry" />
        </mxCell>
        <mxCell id="aYBez-xFLwSCWmGJiX5v-50" value="Preconditions" style="shape=partialRectangle;html=1;whiteSpace=wrap;connectable=0;strokeColor=inherit;overflow=hidden;fillColor=none;top=0;left=0;bottom=0;right=0;pointerEvents=1;" vertex="1" parent="aYBez-xFLwSCWmGJiX5v-49">
          <mxGeometry width="226" height="91" as="geometry">
            <mxRectangle width="226" height="91" as="alternateBounds" />
          </mxGeometry>
        </mxCell>
        <mxCell id="aYBez-xFLwSCWmGJiX5v-51" value="" style="shape=partialRectangle;html=1;whiteSpace=wrap;connectable=0;strokeColor=inherit;overflow=hidden;fillColor=none;top=0;left=0;bottom=0;right=0;pointerEvents=1;" vertex="1" parent="aYBez-xFLwSCWmGJiX5v-49">
          <mxGeometry x="226" width="714" height="91" as="geometry">
            <mxRectangle width="714" height="91" as="alternateBounds" />
          </mxGeometry>
        </mxCell>
        <mxCell id="aYBez-xFLwSCWmGJiX5v-52" value="" style="shape=tableRow;horizontal=0;startSize=0;swimlaneHead=0;swimlaneBody=0;strokeColor=inherit;top=0;left=0;bottom=0;right=0;collapsible=0;dropTarget=0;fillColor=none;points=[[0,0.5],[1,0.5]];portConstraint=eastwest;" vertex="1" parent="aYBez-xFLwSCWmGJiX5v-39">
          <mxGeometry y="365" width="940" height="91" as="geometry" />
        </mxCell>
        <mxCell id="aYBez-xFLwSCWmGJiX5v-53" value="Postconditions" style="shape=partialRectangle;html=1;whiteSpace=wrap;connectable=0;strokeColor=inherit;overflow=hidden;fillColor=none;top=0;left=0;bottom=0;right=0;pointerEvents=1;" vertex="1" parent="aYBez-xFLwSCWmGJiX5v-52">
          <mxGeometry width="226" height="91" as="geometry">
            <mxRectangle width="226" height="91" as="alternateBounds" />
          </mxGeometry>
        </mxCell>
        <mxCell id="aYBez-xFLwSCWmGJiX5v-54" value="" style="shape=partialRectangle;html=1;whiteSpace=wrap;connectable=0;strokeColor=inherit;overflow=hidden;fillColor=none;top=0;left=0;bottom=0;right=0;pointerEvents=1;" vertex="1" parent="aYBez-xFLwSCWmGJiX5v-52">
          <mxGeometry x="226" width="714" height="91" as="geometry">
            <mxRectangle width="714" height="91" as="alternateBounds" />
          </mxGeometry>
        </mxCell>
        <mxCell id="aYBez-xFLwSCWmGJiX5v-58" value="" style="shape=tableRow;horizontal=0;startSize=0;swimlaneHead=0;swimlaneBody=0;strokeColor=inherit;top=0;left=0;bottom=0;right=0;collapsible=0;dropTarget=0;fillColor=none;points=[[0,0.5],[1,0.5]];portConstraint=eastwest;" vertex="1" parent="aYBez-xFLwSCWmGJiX5v-39">
          <mxGeometry y="456" width="940" height="92" as="geometry" />
        </mxCell>
        <mxCell id="aYBez-xFLwSCWmGJiX5v-59" value="Normal Flow" style="shape=partialRectangle;html=1;whiteSpace=wrap;connectable=0;strokeColor=inherit;overflow=hidden;fillColor=none;top=0;left=0;bottom=0;right=0;pointerEvents=1;" vertex="1" parent="aYBez-xFLwSCWmGJiX5v-58">
          <mxGeometry width="226" height="92" as="geometry">
            <mxRectangle width="226" height="92" as="alternateBounds" />
          </mxGeometry>
        </mxCell>
        <mxCell id="aYBez-xFLwSCWmGJiX5v-60" value="" style="shape=partialRectangle;html=1;whiteSpace=wrap;connectable=0;strokeColor=inherit;overflow=hidden;fillColor=none;top=0;left=0;bottom=0;right=0;pointerEvents=1;" vertex="1" parent="aYBez-xFLwSCWmGJiX5v-58">
          <mxGeometry x="226" width="714" height="92" as="geometry">
            <mxRectangle width="714" height="92" as="alternateBounds" />
          </mxGeometry>
        </mxCell>
        <mxCell id="aYBez-xFLwSCWmGJiX5v-61" value="" style="shape=tableRow;horizontal=0;startSize=0;swimlaneHead=0;swimlaneBody=0;strokeColor=inherit;top=0;left=0;bottom=0;right=0;collapsible=0;dropTarget=0;fillColor=none;points=[[0,0.5],[1,0.5]];portConstraint=eastwest;" vertex="1" parent="aYBez-xFLwSCWmGJiX5v-39">
          <mxGeometry y="548" width="940" height="91" as="geometry" />
        </mxCell>
        <mxCell id="aYBez-xFLwSCWmGJiX5v-62" value="Exceptions" style="shape=partialRectangle;html=1;whiteSpace=wrap;connectable=0;strokeColor=inherit;overflow=hidden;fillColor=none;top=0;left=0;bottom=0;right=0;pointerEvents=1;" vertex="1" parent="aYBez-xFLwSCWmGJiX5v-61">
          <mxGeometry width="226" height="91" as="geometry">
            <mxRectangle width="226" height="91" as="alternateBounds" />
          </mxGeometry>
        </mxCell>
        <mxCell id="aYBez-xFLwSCWmGJiX5v-63" value="" style="shape=partialRectangle;html=1;whiteSpace=wrap;connectable=0;strokeColor=inherit;overflow=hidden;fillColor=none;top=0;left=0;bottom=0;right=0;pointerEvents=1;" vertex="1" parent="aYBez-xFLwSCWmGJiX5v-61">
          <mxGeometry x="226" width="714" height="91" as="geometry">
            <mxRectangle width="714" height="91" as="alternateBounds" />
          </mxGeometry>
        </mxCell>
        <mxCell id="aYBez-xFLwSCWmGJiX5v-55" value="" style="shape=tableRow;horizontal=0;startSize=0;swimlaneHead=0;swimlaneBody=0;strokeColor=inherit;top=0;left=0;bottom=0;right=0;collapsible=0;dropTarget=0;fillColor=none;points=[[0,0.5],[1,0.5]];portConstraint=eastwest;" vertex="1" parent="aYBez-xFLwSCWmGJiX5v-39">
          <mxGeometry y="639" width="940" height="91" as="geometry" />
        </mxCell>
        <mxCell id="aYBez-xFLwSCWmGJiX5v-56" value="Alternative Flow" style="shape=partialRectangle;html=1;whiteSpace=wrap;connectable=0;strokeColor=inherit;overflow=hidden;fillColor=none;top=0;left=0;bottom=0;right=0;pointerEvents=1;" vertex="1" parent="aYBez-xFLwSCWmGJiX5v-55">
          <mxGeometry width="226" height="91" as="geometry">
            <mxRectangle width="226" height="91" as="alternateBounds" />
          </mxGeometry>
        </mxCell>
        <mxCell id="aYBez-xFLwSCWmGJiX5v-57" value="" style="shape=partialRectangle;html=1;whiteSpace=wrap;connectable=0;strokeColor=inherit;overflow=hidden;fillColor=none;top=0;left=0;bottom=0;right=0;pointerEvents=1;" vertex="1" parent="aYBez-xFLwSCWmGJiX5v-55">
          <mxGeometry x="226" width="714" height="91" as="geometry">
            <mxRectangle width="714" height="91" as="alternateBounds" />
          </mxGeometry>
        </mxCell>
        <mxCell id="aYBez-xFLwSCWmGJiX5v-64" value="" style="rounded=0;whiteSpace=wrap;html=1;opacity=40;" vertex="1" parent="1">
          <mxGeometry x="290" y="1930" width="560" height="670" as="geometry" />
        </mxCell>
        <mxCell id="aYBez-xFLwSCWmGJiX5v-65" value="Search Function" style="rounded=0;whiteSpace=wrap;html=1;" vertex="1" parent="1">
          <mxGeometry x="290" y="1870" width="560" height="60" as="geometry" />
        </mxCell>
        <mxCell id="aYBez-xFLwSCWmGJiX5v-66" style="edgeStyle=orthogonalEdgeStyle;rounded=0;orthogonalLoop=1;jettySize=auto;html=1;" edge="1" parent="1" source="aYBez-xFLwSCWmGJiX5v-67" target="aYBez-xFLwSCWmGJiX5v-69">
          <mxGeometry relative="1" as="geometry" />
        </mxCell>
        <mxCell id="aYBez-xFLwSCWmGJiX5v-67" value="" style="rounded=0;whiteSpace=wrap;html=1;opacity=40;" vertex="1" parent="1">
          <mxGeometry x="90" y="2200" width="120" height="130" as="geometry" />
        </mxCell>
        <mxCell id="aYBez-xFLwSCWmGJiX5v-68" value="Customer" style="shape=umlActor;verticalLabelPosition=bottom;verticalAlign=top;html=1;outlineConnect=0;" vertex="1" parent="1">
          <mxGeometry x="135" y="2235" width="30" height="60" as="geometry" />
        </mxCell>
        <mxCell id="aYBez-xFLwSCWmGJiX5v-169" style="rounded=0;orthogonalLoop=1;jettySize=auto;html=1;entryX=0;entryY=0.5;entryDx=0;entryDy=0;dashed=1;" edge="1" parent="1" source="aYBez-xFLwSCWmGJiX5v-69" target="aYBez-xFLwSCWmGJiX5v-71">
          <mxGeometry relative="1" as="geometry" />
        </mxCell>
        <mxCell id="aYBez-xFLwSCWmGJiX5v-170" style="rounded=0;orthogonalLoop=1;jettySize=auto;html=1;entryX=0;entryY=0.5;entryDx=0;entryDy=0;dashed=1;" edge="1" parent="1" source="aYBez-xFLwSCWmGJiX5v-69" target="aYBez-xFLwSCWmGJiX5v-166">
          <mxGeometry relative="1" as="geometry" />
        </mxCell>
        <mxCell id="aYBez-xFLwSCWmGJiX5v-171" style="rounded=0;orthogonalLoop=1;jettySize=auto;html=1;entryX=0;entryY=0.5;entryDx=0;entryDy=0;dashed=1;" edge="1" parent="1" source="aYBez-xFLwSCWmGJiX5v-69" target="aYBez-xFLwSCWmGJiX5v-73">
          <mxGeometry relative="1" as="geometry" />
        </mxCell>
        <mxCell id="aYBez-xFLwSCWmGJiX5v-172" style="rounded=0;orthogonalLoop=1;jettySize=auto;html=1;entryX=0.5;entryY=0;entryDx=0;entryDy=0;dashed=1;" edge="1" parent="1" source="aYBez-xFLwSCWmGJiX5v-69" target="aYBez-xFLwSCWmGJiX5v-168">
          <mxGeometry relative="1" as="geometry" />
        </mxCell>
        <mxCell id="aYBez-xFLwSCWmGJiX5v-69" value="Search Items" style="ellipse;whiteSpace=wrap;html=1;" vertex="1" parent="1">
          <mxGeometry x="350" y="2230" width="120" height="70" as="geometry" />
        </mxCell>
        <mxCell id="aYBez-xFLwSCWmGJiX5v-71" value="Search By Tags" style="ellipse;whiteSpace=wrap;html=1;" vertex="1" parent="1">
          <mxGeometry x="600" y="2100" width="120" height="70" as="geometry" />
        </mxCell>
        <mxCell id="aYBez-xFLwSCWmGJiX5v-73" value="Search By Filter" style="ellipse;whiteSpace=wrap;html=1;" vertex="1" parent="1">
          <mxGeometry x="600" y="2350" width="120" height="70" as="geometry" />
        </mxCell>
        <mxCell id="aYBez-xFLwSCWmGJiX5v-80" value="&amp;lt;&amp;lt;include&amp;gt;&amp;gt;" style="text;html=1;strokeColor=none;fillColor=none;align=center;verticalAlign=middle;whiteSpace=wrap;rounded=0;direction=south;rotation=-45;" vertex="1" parent="1">
          <mxGeometry x="510" y="2130" width="30" height="60" as="geometry" />
        </mxCell>
        <mxCell id="aYBez-xFLwSCWmGJiX5v-85" value="" style="shape=table;startSize=0;container=1;collapsible=0;childLayout=tableLayout;" vertex="1" parent="1">
          <mxGeometry x="990" y="1870" width="940" height="730" as="geometry" />
        </mxCell>
        <mxCell id="aYBez-xFLwSCWmGJiX5v-86" value="" style="shape=tableRow;horizontal=0;startSize=0;swimlaneHead=0;swimlaneBody=0;strokeColor=inherit;top=0;left=0;bottom=0;right=0;collapsible=0;dropTarget=0;fillColor=none;points=[[0,0.5],[1,0.5]];portConstraint=eastwest;" vertex="1" parent="aYBez-xFLwSCWmGJiX5v-85">
          <mxGeometry width="940" height="91" as="geometry" />
        </mxCell>
        <mxCell id="aYBez-xFLwSCWmGJiX5v-87" value="Use-Case Name" style="shape=partialRectangle;html=1;whiteSpace=wrap;connectable=0;strokeColor=inherit;overflow=hidden;fillColor=none;top=0;left=0;bottom=0;right=0;pointerEvents=1;" vertex="1" parent="aYBez-xFLwSCWmGJiX5v-86">
          <mxGeometry width="226" height="91" as="geometry">
            <mxRectangle width="226" height="91" as="alternateBounds" />
          </mxGeometry>
        </mxCell>
        <mxCell id="aYBez-xFLwSCWmGJiX5v-88" value="" style="shape=partialRectangle;html=1;whiteSpace=wrap;connectable=0;strokeColor=inherit;overflow=hidden;fillColor=none;top=0;left=0;bottom=0;right=0;pointerEvents=1;" vertex="1" parent="aYBez-xFLwSCWmGJiX5v-86">
          <mxGeometry x="226" width="714" height="91" as="geometry">
            <mxRectangle width="714" height="91" as="alternateBounds" />
          </mxGeometry>
        </mxCell>
        <mxCell id="aYBez-xFLwSCWmGJiX5v-89" value="" style="shape=tableRow;horizontal=0;startSize=0;swimlaneHead=0;swimlaneBody=0;strokeColor=inherit;top=0;left=0;bottom=0;right=0;collapsible=0;dropTarget=0;fillColor=none;points=[[0,0.5],[1,0.5]];portConstraint=eastwest;" vertex="1" parent="aYBez-xFLwSCWmGJiX5v-85">
          <mxGeometry y="91" width="940" height="92" as="geometry" />
        </mxCell>
        <mxCell id="aYBez-xFLwSCWmGJiX5v-90" value="Actor" style="shape=partialRectangle;html=1;whiteSpace=wrap;connectable=0;strokeColor=inherit;overflow=hidden;fillColor=none;top=0;left=0;bottom=0;right=0;pointerEvents=1;" vertex="1" parent="aYBez-xFLwSCWmGJiX5v-89">
          <mxGeometry width="226" height="92" as="geometry">
            <mxRectangle width="226" height="92" as="alternateBounds" />
          </mxGeometry>
        </mxCell>
        <mxCell id="aYBez-xFLwSCWmGJiX5v-91" value="" style="shape=partialRectangle;html=1;whiteSpace=wrap;connectable=0;strokeColor=inherit;overflow=hidden;fillColor=none;top=0;left=0;bottom=0;right=0;pointerEvents=1;" vertex="1" parent="aYBez-xFLwSCWmGJiX5v-89">
          <mxGeometry x="226" width="714" height="92" as="geometry">
            <mxRectangle width="714" height="92" as="alternateBounds" />
          </mxGeometry>
        </mxCell>
        <mxCell id="aYBez-xFLwSCWmGJiX5v-92" value="" style="shape=tableRow;horizontal=0;startSize=0;swimlaneHead=0;swimlaneBody=0;strokeColor=inherit;top=0;left=0;bottom=0;right=0;collapsible=0;dropTarget=0;fillColor=none;points=[[0,0.5],[1,0.5]];portConstraint=eastwest;" vertex="1" parent="aYBez-xFLwSCWmGJiX5v-85">
          <mxGeometry y="183" width="940" height="91" as="geometry" />
        </mxCell>
        <mxCell id="aYBez-xFLwSCWmGJiX5v-93" value="Description" style="shape=partialRectangle;html=1;whiteSpace=wrap;connectable=0;strokeColor=inherit;overflow=hidden;fillColor=none;top=0;left=0;bottom=0;right=0;pointerEvents=1;" vertex="1" parent="aYBez-xFLwSCWmGJiX5v-92">
          <mxGeometry width="226" height="91" as="geometry">
            <mxRectangle width="226" height="91" as="alternateBounds" />
          </mxGeometry>
        </mxCell>
        <mxCell id="aYBez-xFLwSCWmGJiX5v-94" value="" style="shape=partialRectangle;html=1;whiteSpace=wrap;connectable=0;strokeColor=inherit;overflow=hidden;fillColor=none;top=0;left=0;bottom=0;right=0;pointerEvents=1;" vertex="1" parent="aYBez-xFLwSCWmGJiX5v-92">
          <mxGeometry x="226" width="714" height="91" as="geometry">
            <mxRectangle width="714" height="91" as="alternateBounds" />
          </mxGeometry>
        </mxCell>
        <mxCell id="aYBez-xFLwSCWmGJiX5v-95" value="" style="shape=tableRow;horizontal=0;startSize=0;swimlaneHead=0;swimlaneBody=0;strokeColor=inherit;top=0;left=0;bottom=0;right=0;collapsible=0;dropTarget=0;fillColor=none;points=[[0,0.5],[1,0.5]];portConstraint=eastwest;" vertex="1" parent="aYBez-xFLwSCWmGJiX5v-85">
          <mxGeometry y="274" width="940" height="91" as="geometry" />
        </mxCell>
        <mxCell id="aYBez-xFLwSCWmGJiX5v-96" value="Preconditions" style="shape=partialRectangle;html=1;whiteSpace=wrap;connectable=0;strokeColor=inherit;overflow=hidden;fillColor=none;top=0;left=0;bottom=0;right=0;pointerEvents=1;" vertex="1" parent="aYBez-xFLwSCWmGJiX5v-95">
          <mxGeometry width="226" height="91" as="geometry">
            <mxRectangle width="226" height="91" as="alternateBounds" />
          </mxGeometry>
        </mxCell>
        <mxCell id="aYBez-xFLwSCWmGJiX5v-97" value="" style="shape=partialRectangle;html=1;whiteSpace=wrap;connectable=0;strokeColor=inherit;overflow=hidden;fillColor=none;top=0;left=0;bottom=0;right=0;pointerEvents=1;" vertex="1" parent="aYBez-xFLwSCWmGJiX5v-95">
          <mxGeometry x="226" width="714" height="91" as="geometry">
            <mxRectangle width="714" height="91" as="alternateBounds" />
          </mxGeometry>
        </mxCell>
        <mxCell id="aYBez-xFLwSCWmGJiX5v-98" value="" style="shape=tableRow;horizontal=0;startSize=0;swimlaneHead=0;swimlaneBody=0;strokeColor=inherit;top=0;left=0;bottom=0;right=0;collapsible=0;dropTarget=0;fillColor=none;points=[[0,0.5],[1,0.5]];portConstraint=eastwest;" vertex="1" parent="aYBez-xFLwSCWmGJiX5v-85">
          <mxGeometry y="365" width="940" height="91" as="geometry" />
        </mxCell>
        <mxCell id="aYBez-xFLwSCWmGJiX5v-99" value="Postconditions" style="shape=partialRectangle;html=1;whiteSpace=wrap;connectable=0;strokeColor=inherit;overflow=hidden;fillColor=none;top=0;left=0;bottom=0;right=0;pointerEvents=1;" vertex="1" parent="aYBez-xFLwSCWmGJiX5v-98">
          <mxGeometry width="226" height="91" as="geometry">
            <mxRectangle width="226" height="91" as="alternateBounds" />
          </mxGeometry>
        </mxCell>
        <mxCell id="aYBez-xFLwSCWmGJiX5v-100" value="" style="shape=partialRectangle;html=1;whiteSpace=wrap;connectable=0;strokeColor=inherit;overflow=hidden;fillColor=none;top=0;left=0;bottom=0;right=0;pointerEvents=1;" vertex="1" parent="aYBez-xFLwSCWmGJiX5v-98">
          <mxGeometry x="226" width="714" height="91" as="geometry">
            <mxRectangle width="714" height="91" as="alternateBounds" />
          </mxGeometry>
        </mxCell>
        <mxCell id="aYBez-xFLwSCWmGJiX5v-101" value="" style="shape=tableRow;horizontal=0;startSize=0;swimlaneHead=0;swimlaneBody=0;strokeColor=inherit;top=0;left=0;bottom=0;right=0;collapsible=0;dropTarget=0;fillColor=none;points=[[0,0.5],[1,0.5]];portConstraint=eastwest;" vertex="1" parent="aYBez-xFLwSCWmGJiX5v-85">
          <mxGeometry y="456" width="940" height="92" as="geometry" />
        </mxCell>
        <mxCell id="aYBez-xFLwSCWmGJiX5v-102" value="Normal Flow" style="shape=partialRectangle;html=1;whiteSpace=wrap;connectable=0;strokeColor=inherit;overflow=hidden;fillColor=none;top=0;left=0;bottom=0;right=0;pointerEvents=1;" vertex="1" parent="aYBez-xFLwSCWmGJiX5v-101">
          <mxGeometry width="226" height="92" as="geometry">
            <mxRectangle width="226" height="92" as="alternateBounds" />
          </mxGeometry>
        </mxCell>
        <mxCell id="aYBez-xFLwSCWmGJiX5v-103" value="" style="shape=partialRectangle;html=1;whiteSpace=wrap;connectable=0;strokeColor=inherit;overflow=hidden;fillColor=none;top=0;left=0;bottom=0;right=0;pointerEvents=1;" vertex="1" parent="aYBez-xFLwSCWmGJiX5v-101">
          <mxGeometry x="226" width="714" height="92" as="geometry">
            <mxRectangle width="714" height="92" as="alternateBounds" />
          </mxGeometry>
        </mxCell>
        <mxCell id="aYBez-xFLwSCWmGJiX5v-104" value="" style="shape=tableRow;horizontal=0;startSize=0;swimlaneHead=0;swimlaneBody=0;strokeColor=inherit;top=0;left=0;bottom=0;right=0;collapsible=0;dropTarget=0;fillColor=none;points=[[0,0.5],[1,0.5]];portConstraint=eastwest;" vertex="1" parent="aYBez-xFLwSCWmGJiX5v-85">
          <mxGeometry y="548" width="940" height="91" as="geometry" />
        </mxCell>
        <mxCell id="aYBez-xFLwSCWmGJiX5v-105" value="Exceptions" style="shape=partialRectangle;html=1;whiteSpace=wrap;connectable=0;strokeColor=inherit;overflow=hidden;fillColor=none;top=0;left=0;bottom=0;right=0;pointerEvents=1;" vertex="1" parent="aYBez-xFLwSCWmGJiX5v-104">
          <mxGeometry width="226" height="91" as="geometry">
            <mxRectangle width="226" height="91" as="alternateBounds" />
          </mxGeometry>
        </mxCell>
        <mxCell id="aYBez-xFLwSCWmGJiX5v-106" value="" style="shape=partialRectangle;html=1;whiteSpace=wrap;connectable=0;strokeColor=inherit;overflow=hidden;fillColor=none;top=0;left=0;bottom=0;right=0;pointerEvents=1;" vertex="1" parent="aYBez-xFLwSCWmGJiX5v-104">
          <mxGeometry x="226" width="714" height="91" as="geometry">
            <mxRectangle width="714" height="91" as="alternateBounds" />
          </mxGeometry>
        </mxCell>
        <mxCell id="aYBez-xFLwSCWmGJiX5v-107" value="" style="shape=tableRow;horizontal=0;startSize=0;swimlaneHead=0;swimlaneBody=0;strokeColor=inherit;top=0;left=0;bottom=0;right=0;collapsible=0;dropTarget=0;fillColor=none;points=[[0,0.5],[1,0.5]];portConstraint=eastwest;" vertex="1" parent="aYBez-xFLwSCWmGJiX5v-85">
          <mxGeometry y="639" width="940" height="91" as="geometry" />
        </mxCell>
        <mxCell id="aYBez-xFLwSCWmGJiX5v-108" value="Alternative Flow" style="shape=partialRectangle;html=1;whiteSpace=wrap;connectable=0;strokeColor=inherit;overflow=hidden;fillColor=none;top=0;left=0;bottom=0;right=0;pointerEvents=1;" vertex="1" parent="aYBez-xFLwSCWmGJiX5v-107">
          <mxGeometry width="226" height="91" as="geometry">
            <mxRectangle width="226" height="91" as="alternateBounds" />
          </mxGeometry>
        </mxCell>
        <mxCell id="aYBez-xFLwSCWmGJiX5v-109" value="" style="shape=partialRectangle;html=1;whiteSpace=wrap;connectable=0;strokeColor=inherit;overflow=hidden;fillColor=none;top=0;left=0;bottom=0;right=0;pointerEvents=1;" vertex="1" parent="aYBez-xFLwSCWmGJiX5v-107">
          <mxGeometry x="226" width="714" height="91" as="geometry">
            <mxRectangle width="714" height="91" as="alternateBounds" />
          </mxGeometry>
        </mxCell>
        <mxCell id="aYBez-xFLwSCWmGJiX5v-110" value="" style="shape=table;startSize=0;container=1;collapsible=0;childLayout=tableLayout;" vertex="1" parent="1">
          <mxGeometry x="2240" y="960" width="940" height="730" as="geometry" />
        </mxCell>
        <mxCell id="aYBez-xFLwSCWmGJiX5v-111" value="" style="shape=tableRow;horizontal=0;startSize=0;swimlaneHead=0;swimlaneBody=0;strokeColor=inherit;top=0;left=0;bottom=0;right=0;collapsible=0;dropTarget=0;fillColor=none;points=[[0,0.5],[1,0.5]];portConstraint=eastwest;" vertex="1" parent="aYBez-xFLwSCWmGJiX5v-110">
          <mxGeometry width="940" height="91" as="geometry" />
        </mxCell>
        <mxCell id="aYBez-xFLwSCWmGJiX5v-112" value="Use-Case Name" style="shape=partialRectangle;html=1;whiteSpace=wrap;connectable=0;strokeColor=inherit;overflow=hidden;fillColor=none;top=0;left=0;bottom=0;right=0;pointerEvents=1;" vertex="1" parent="aYBez-xFLwSCWmGJiX5v-111">
          <mxGeometry width="226" height="91" as="geometry">
            <mxRectangle width="226" height="91" as="alternateBounds" />
          </mxGeometry>
        </mxCell>
        <mxCell id="aYBez-xFLwSCWmGJiX5v-113" value="" style="shape=partialRectangle;html=1;whiteSpace=wrap;connectable=0;strokeColor=inherit;overflow=hidden;fillColor=none;top=0;left=0;bottom=0;right=0;pointerEvents=1;" vertex="1" parent="aYBez-xFLwSCWmGJiX5v-111">
          <mxGeometry x="226" width="714" height="91" as="geometry">
            <mxRectangle width="714" height="91" as="alternateBounds" />
          </mxGeometry>
        </mxCell>
        <mxCell id="aYBez-xFLwSCWmGJiX5v-114" value="" style="shape=tableRow;horizontal=0;startSize=0;swimlaneHead=0;swimlaneBody=0;strokeColor=inherit;top=0;left=0;bottom=0;right=0;collapsible=0;dropTarget=0;fillColor=none;points=[[0,0.5],[1,0.5]];portConstraint=eastwest;" vertex="1" parent="aYBez-xFLwSCWmGJiX5v-110">
          <mxGeometry y="91" width="940" height="92" as="geometry" />
        </mxCell>
        <mxCell id="aYBez-xFLwSCWmGJiX5v-115" value="Actor" style="shape=partialRectangle;html=1;whiteSpace=wrap;connectable=0;strokeColor=inherit;overflow=hidden;fillColor=none;top=0;left=0;bottom=0;right=0;pointerEvents=1;" vertex="1" parent="aYBez-xFLwSCWmGJiX5v-114">
          <mxGeometry width="226" height="92" as="geometry">
            <mxRectangle width="226" height="92" as="alternateBounds" />
          </mxGeometry>
        </mxCell>
        <mxCell id="aYBez-xFLwSCWmGJiX5v-116" value="" style="shape=partialRectangle;html=1;whiteSpace=wrap;connectable=0;strokeColor=inherit;overflow=hidden;fillColor=none;top=0;left=0;bottom=0;right=0;pointerEvents=1;" vertex="1" parent="aYBez-xFLwSCWmGJiX5v-114">
          <mxGeometry x="226" width="714" height="92" as="geometry">
            <mxRectangle width="714" height="92" as="alternateBounds" />
          </mxGeometry>
        </mxCell>
        <mxCell id="aYBez-xFLwSCWmGJiX5v-117" value="" style="shape=tableRow;horizontal=0;startSize=0;swimlaneHead=0;swimlaneBody=0;strokeColor=inherit;top=0;left=0;bottom=0;right=0;collapsible=0;dropTarget=0;fillColor=none;points=[[0,0.5],[1,0.5]];portConstraint=eastwest;" vertex="1" parent="aYBez-xFLwSCWmGJiX5v-110">
          <mxGeometry y="183" width="940" height="91" as="geometry" />
        </mxCell>
        <mxCell id="aYBez-xFLwSCWmGJiX5v-118" value="Description" style="shape=partialRectangle;html=1;whiteSpace=wrap;connectable=0;strokeColor=inherit;overflow=hidden;fillColor=none;top=0;left=0;bottom=0;right=0;pointerEvents=1;" vertex="1" parent="aYBez-xFLwSCWmGJiX5v-117">
          <mxGeometry width="226" height="91" as="geometry">
            <mxRectangle width="226" height="91" as="alternateBounds" />
          </mxGeometry>
        </mxCell>
        <mxCell id="aYBez-xFLwSCWmGJiX5v-119" value="" style="shape=partialRectangle;html=1;whiteSpace=wrap;connectable=0;strokeColor=inherit;overflow=hidden;fillColor=none;top=0;left=0;bottom=0;right=0;pointerEvents=1;" vertex="1" parent="aYBez-xFLwSCWmGJiX5v-117">
          <mxGeometry x="226" width="714" height="91" as="geometry">
            <mxRectangle width="714" height="91" as="alternateBounds" />
          </mxGeometry>
        </mxCell>
        <mxCell id="aYBez-xFLwSCWmGJiX5v-120" value="" style="shape=tableRow;horizontal=0;startSize=0;swimlaneHead=0;swimlaneBody=0;strokeColor=inherit;top=0;left=0;bottom=0;right=0;collapsible=0;dropTarget=0;fillColor=none;points=[[0,0.5],[1,0.5]];portConstraint=eastwest;" vertex="1" parent="aYBez-xFLwSCWmGJiX5v-110">
          <mxGeometry y="274" width="940" height="91" as="geometry" />
        </mxCell>
        <mxCell id="aYBez-xFLwSCWmGJiX5v-121" value="Preconditions" style="shape=partialRectangle;html=1;whiteSpace=wrap;connectable=0;strokeColor=inherit;overflow=hidden;fillColor=none;top=0;left=0;bottom=0;right=0;pointerEvents=1;" vertex="1" parent="aYBez-xFLwSCWmGJiX5v-120">
          <mxGeometry width="226" height="91" as="geometry">
            <mxRectangle width="226" height="91" as="alternateBounds" />
          </mxGeometry>
        </mxCell>
        <mxCell id="aYBez-xFLwSCWmGJiX5v-122" value="" style="shape=partialRectangle;html=1;whiteSpace=wrap;connectable=0;strokeColor=inherit;overflow=hidden;fillColor=none;top=0;left=0;bottom=0;right=0;pointerEvents=1;" vertex="1" parent="aYBez-xFLwSCWmGJiX5v-120">
          <mxGeometry x="226" width="714" height="91" as="geometry">
            <mxRectangle width="714" height="91" as="alternateBounds" />
          </mxGeometry>
        </mxCell>
        <mxCell id="aYBez-xFLwSCWmGJiX5v-123" value="" style="shape=tableRow;horizontal=0;startSize=0;swimlaneHead=0;swimlaneBody=0;strokeColor=inherit;top=0;left=0;bottom=0;right=0;collapsible=0;dropTarget=0;fillColor=none;points=[[0,0.5],[1,0.5]];portConstraint=eastwest;" vertex="1" parent="aYBez-xFLwSCWmGJiX5v-110">
          <mxGeometry y="365" width="940" height="91" as="geometry" />
        </mxCell>
        <mxCell id="aYBez-xFLwSCWmGJiX5v-124" value="Postconditions" style="shape=partialRectangle;html=1;whiteSpace=wrap;connectable=0;strokeColor=inherit;overflow=hidden;fillColor=none;top=0;left=0;bottom=0;right=0;pointerEvents=1;" vertex="1" parent="aYBez-xFLwSCWmGJiX5v-123">
          <mxGeometry width="226" height="91" as="geometry">
            <mxRectangle width="226" height="91" as="alternateBounds" />
          </mxGeometry>
        </mxCell>
        <mxCell id="aYBez-xFLwSCWmGJiX5v-125" value="" style="shape=partialRectangle;html=1;whiteSpace=wrap;connectable=0;strokeColor=inherit;overflow=hidden;fillColor=none;top=0;left=0;bottom=0;right=0;pointerEvents=1;" vertex="1" parent="aYBez-xFLwSCWmGJiX5v-123">
          <mxGeometry x="226" width="714" height="91" as="geometry">
            <mxRectangle width="714" height="91" as="alternateBounds" />
          </mxGeometry>
        </mxCell>
        <mxCell id="aYBez-xFLwSCWmGJiX5v-126" value="" style="shape=tableRow;horizontal=0;startSize=0;swimlaneHead=0;swimlaneBody=0;strokeColor=inherit;top=0;left=0;bottom=0;right=0;collapsible=0;dropTarget=0;fillColor=none;points=[[0,0.5],[1,0.5]];portConstraint=eastwest;" vertex="1" parent="aYBez-xFLwSCWmGJiX5v-110">
          <mxGeometry y="456" width="940" height="92" as="geometry" />
        </mxCell>
        <mxCell id="aYBez-xFLwSCWmGJiX5v-127" value="Normal Flow" style="shape=partialRectangle;html=1;whiteSpace=wrap;connectable=0;strokeColor=inherit;overflow=hidden;fillColor=none;top=0;left=0;bottom=0;right=0;pointerEvents=1;" vertex="1" parent="aYBez-xFLwSCWmGJiX5v-126">
          <mxGeometry width="226" height="92" as="geometry">
            <mxRectangle width="226" height="92" as="alternateBounds" />
          </mxGeometry>
        </mxCell>
        <mxCell id="aYBez-xFLwSCWmGJiX5v-128" value="" style="shape=partialRectangle;html=1;whiteSpace=wrap;connectable=0;strokeColor=inherit;overflow=hidden;fillColor=none;top=0;left=0;bottom=0;right=0;pointerEvents=1;" vertex="1" parent="aYBez-xFLwSCWmGJiX5v-126">
          <mxGeometry x="226" width="714" height="92" as="geometry">
            <mxRectangle width="714" height="92" as="alternateBounds" />
          </mxGeometry>
        </mxCell>
        <mxCell id="aYBez-xFLwSCWmGJiX5v-129" value="" style="shape=tableRow;horizontal=0;startSize=0;swimlaneHead=0;swimlaneBody=0;strokeColor=inherit;top=0;left=0;bottom=0;right=0;collapsible=0;dropTarget=0;fillColor=none;points=[[0,0.5],[1,0.5]];portConstraint=eastwest;" vertex="1" parent="aYBez-xFLwSCWmGJiX5v-110">
          <mxGeometry y="548" width="940" height="91" as="geometry" />
        </mxCell>
        <mxCell id="aYBez-xFLwSCWmGJiX5v-130" value="Exceptions" style="shape=partialRectangle;html=1;whiteSpace=wrap;connectable=0;strokeColor=inherit;overflow=hidden;fillColor=none;top=0;left=0;bottom=0;right=0;pointerEvents=1;" vertex="1" parent="aYBez-xFLwSCWmGJiX5v-129">
          <mxGeometry width="226" height="91" as="geometry">
            <mxRectangle width="226" height="91" as="alternateBounds" />
          </mxGeometry>
        </mxCell>
        <mxCell id="aYBez-xFLwSCWmGJiX5v-131" value="" style="shape=partialRectangle;html=1;whiteSpace=wrap;connectable=0;strokeColor=inherit;overflow=hidden;fillColor=none;top=0;left=0;bottom=0;right=0;pointerEvents=1;" vertex="1" parent="aYBez-xFLwSCWmGJiX5v-129">
          <mxGeometry x="226" width="714" height="91" as="geometry">
            <mxRectangle width="714" height="91" as="alternateBounds" />
          </mxGeometry>
        </mxCell>
        <mxCell id="aYBez-xFLwSCWmGJiX5v-132" value="" style="shape=tableRow;horizontal=0;startSize=0;swimlaneHead=0;swimlaneBody=0;strokeColor=inherit;top=0;left=0;bottom=0;right=0;collapsible=0;dropTarget=0;fillColor=none;points=[[0,0.5],[1,0.5]];portConstraint=eastwest;" vertex="1" parent="aYBez-xFLwSCWmGJiX5v-110">
          <mxGeometry y="639" width="940" height="91" as="geometry" />
        </mxCell>
        <mxCell id="aYBez-xFLwSCWmGJiX5v-133" value="Alternative Flow" style="shape=partialRectangle;html=1;whiteSpace=wrap;connectable=0;strokeColor=inherit;overflow=hidden;fillColor=none;top=0;left=0;bottom=0;right=0;pointerEvents=1;" vertex="1" parent="aYBez-xFLwSCWmGJiX5v-132">
          <mxGeometry width="226" height="91" as="geometry">
            <mxRectangle width="226" height="91" as="alternateBounds" />
          </mxGeometry>
        </mxCell>
        <mxCell id="aYBez-xFLwSCWmGJiX5v-134" value="" style="shape=partialRectangle;html=1;whiteSpace=wrap;connectable=0;strokeColor=inherit;overflow=hidden;fillColor=none;top=0;left=0;bottom=0;right=0;pointerEvents=1;" vertex="1" parent="aYBez-xFLwSCWmGJiX5v-132">
          <mxGeometry x="226" width="714" height="91" as="geometry">
            <mxRectangle width="714" height="91" as="alternateBounds" />
          </mxGeometry>
        </mxCell>
        <mxCell id="aYBez-xFLwSCWmGJiX5v-135" value="" style="shape=table;startSize=0;container=1;collapsible=0;childLayout=tableLayout;" vertex="1" parent="1">
          <mxGeometry x="3310" y="970" width="940" height="730" as="geometry" />
        </mxCell>
        <mxCell id="aYBez-xFLwSCWmGJiX5v-136" value="" style="shape=tableRow;horizontal=0;startSize=0;swimlaneHead=0;swimlaneBody=0;strokeColor=inherit;top=0;left=0;bottom=0;right=0;collapsible=0;dropTarget=0;fillColor=none;points=[[0,0.5],[1,0.5]];portConstraint=eastwest;" vertex="1" parent="aYBez-xFLwSCWmGJiX5v-135">
          <mxGeometry width="940" height="91" as="geometry" />
        </mxCell>
        <mxCell id="aYBez-xFLwSCWmGJiX5v-137" value="Use-Case Name" style="shape=partialRectangle;html=1;whiteSpace=wrap;connectable=0;strokeColor=inherit;overflow=hidden;fillColor=none;top=0;left=0;bottom=0;right=0;pointerEvents=1;" vertex="1" parent="aYBez-xFLwSCWmGJiX5v-136">
          <mxGeometry width="226" height="91" as="geometry">
            <mxRectangle width="226" height="91" as="alternateBounds" />
          </mxGeometry>
        </mxCell>
        <mxCell id="aYBez-xFLwSCWmGJiX5v-138" value="" style="shape=partialRectangle;html=1;whiteSpace=wrap;connectable=0;strokeColor=inherit;overflow=hidden;fillColor=none;top=0;left=0;bottom=0;right=0;pointerEvents=1;" vertex="1" parent="aYBez-xFLwSCWmGJiX5v-136">
          <mxGeometry x="226" width="714" height="91" as="geometry">
            <mxRectangle width="714" height="91" as="alternateBounds" />
          </mxGeometry>
        </mxCell>
        <mxCell id="aYBez-xFLwSCWmGJiX5v-139" value="" style="shape=tableRow;horizontal=0;startSize=0;swimlaneHead=0;swimlaneBody=0;strokeColor=inherit;top=0;left=0;bottom=0;right=0;collapsible=0;dropTarget=0;fillColor=none;points=[[0,0.5],[1,0.5]];portConstraint=eastwest;" vertex="1" parent="aYBez-xFLwSCWmGJiX5v-135">
          <mxGeometry y="91" width="940" height="92" as="geometry" />
        </mxCell>
        <mxCell id="aYBez-xFLwSCWmGJiX5v-140" value="Actor" style="shape=partialRectangle;html=1;whiteSpace=wrap;connectable=0;strokeColor=inherit;overflow=hidden;fillColor=none;top=0;left=0;bottom=0;right=0;pointerEvents=1;" vertex="1" parent="aYBez-xFLwSCWmGJiX5v-139">
          <mxGeometry width="226" height="92" as="geometry">
            <mxRectangle width="226" height="92" as="alternateBounds" />
          </mxGeometry>
        </mxCell>
        <mxCell id="aYBez-xFLwSCWmGJiX5v-141" value="" style="shape=partialRectangle;html=1;whiteSpace=wrap;connectable=0;strokeColor=inherit;overflow=hidden;fillColor=none;top=0;left=0;bottom=0;right=0;pointerEvents=1;" vertex="1" parent="aYBez-xFLwSCWmGJiX5v-139">
          <mxGeometry x="226" width="714" height="92" as="geometry">
            <mxRectangle width="714" height="92" as="alternateBounds" />
          </mxGeometry>
        </mxCell>
        <mxCell id="aYBez-xFLwSCWmGJiX5v-142" value="" style="shape=tableRow;horizontal=0;startSize=0;swimlaneHead=0;swimlaneBody=0;strokeColor=inherit;top=0;left=0;bottom=0;right=0;collapsible=0;dropTarget=0;fillColor=none;points=[[0,0.5],[1,0.5]];portConstraint=eastwest;" vertex="1" parent="aYBez-xFLwSCWmGJiX5v-135">
          <mxGeometry y="183" width="940" height="91" as="geometry" />
        </mxCell>
        <mxCell id="aYBez-xFLwSCWmGJiX5v-143" value="Description" style="shape=partialRectangle;html=1;whiteSpace=wrap;connectable=0;strokeColor=inherit;overflow=hidden;fillColor=none;top=0;left=0;bottom=0;right=0;pointerEvents=1;" vertex="1" parent="aYBez-xFLwSCWmGJiX5v-142">
          <mxGeometry width="226" height="91" as="geometry">
            <mxRectangle width="226" height="91" as="alternateBounds" />
          </mxGeometry>
        </mxCell>
        <mxCell id="aYBez-xFLwSCWmGJiX5v-144" value="" style="shape=partialRectangle;html=1;whiteSpace=wrap;connectable=0;strokeColor=inherit;overflow=hidden;fillColor=none;top=0;left=0;bottom=0;right=0;pointerEvents=1;" vertex="1" parent="aYBez-xFLwSCWmGJiX5v-142">
          <mxGeometry x="226" width="714" height="91" as="geometry">
            <mxRectangle width="714" height="91" as="alternateBounds" />
          </mxGeometry>
        </mxCell>
        <mxCell id="aYBez-xFLwSCWmGJiX5v-145" value="" style="shape=tableRow;horizontal=0;startSize=0;swimlaneHead=0;swimlaneBody=0;strokeColor=inherit;top=0;left=0;bottom=0;right=0;collapsible=0;dropTarget=0;fillColor=none;points=[[0,0.5],[1,0.5]];portConstraint=eastwest;" vertex="1" parent="aYBez-xFLwSCWmGJiX5v-135">
          <mxGeometry y="274" width="940" height="91" as="geometry" />
        </mxCell>
        <mxCell id="aYBez-xFLwSCWmGJiX5v-146" value="Preconditions" style="shape=partialRectangle;html=1;whiteSpace=wrap;connectable=0;strokeColor=inherit;overflow=hidden;fillColor=none;top=0;left=0;bottom=0;right=0;pointerEvents=1;" vertex="1" parent="aYBez-xFLwSCWmGJiX5v-145">
          <mxGeometry width="226" height="91" as="geometry">
            <mxRectangle width="226" height="91" as="alternateBounds" />
          </mxGeometry>
        </mxCell>
        <mxCell id="aYBez-xFLwSCWmGJiX5v-147" value="" style="shape=partialRectangle;html=1;whiteSpace=wrap;connectable=0;strokeColor=inherit;overflow=hidden;fillColor=none;top=0;left=0;bottom=0;right=0;pointerEvents=1;" vertex="1" parent="aYBez-xFLwSCWmGJiX5v-145">
          <mxGeometry x="226" width="714" height="91" as="geometry">
            <mxRectangle width="714" height="91" as="alternateBounds" />
          </mxGeometry>
        </mxCell>
        <mxCell id="aYBez-xFLwSCWmGJiX5v-148" value="" style="shape=tableRow;horizontal=0;startSize=0;swimlaneHead=0;swimlaneBody=0;strokeColor=inherit;top=0;left=0;bottom=0;right=0;collapsible=0;dropTarget=0;fillColor=none;points=[[0,0.5],[1,0.5]];portConstraint=eastwest;" vertex="1" parent="aYBez-xFLwSCWmGJiX5v-135">
          <mxGeometry y="365" width="940" height="91" as="geometry" />
        </mxCell>
        <mxCell id="aYBez-xFLwSCWmGJiX5v-149" value="Postconditions" style="shape=partialRectangle;html=1;whiteSpace=wrap;connectable=0;strokeColor=inherit;overflow=hidden;fillColor=none;top=0;left=0;bottom=0;right=0;pointerEvents=1;" vertex="1" parent="aYBez-xFLwSCWmGJiX5v-148">
          <mxGeometry width="226" height="91" as="geometry">
            <mxRectangle width="226" height="91" as="alternateBounds" />
          </mxGeometry>
        </mxCell>
        <mxCell id="aYBez-xFLwSCWmGJiX5v-150" value="" style="shape=partialRectangle;html=1;whiteSpace=wrap;connectable=0;strokeColor=inherit;overflow=hidden;fillColor=none;top=0;left=0;bottom=0;right=0;pointerEvents=1;" vertex="1" parent="aYBez-xFLwSCWmGJiX5v-148">
          <mxGeometry x="226" width="714" height="91" as="geometry">
            <mxRectangle width="714" height="91" as="alternateBounds" />
          </mxGeometry>
        </mxCell>
        <mxCell id="aYBez-xFLwSCWmGJiX5v-151" value="" style="shape=tableRow;horizontal=0;startSize=0;swimlaneHead=0;swimlaneBody=0;strokeColor=inherit;top=0;left=0;bottom=0;right=0;collapsible=0;dropTarget=0;fillColor=none;points=[[0,0.5],[1,0.5]];portConstraint=eastwest;" vertex="1" parent="aYBez-xFLwSCWmGJiX5v-135">
          <mxGeometry y="456" width="940" height="92" as="geometry" />
        </mxCell>
        <mxCell id="aYBez-xFLwSCWmGJiX5v-152" value="Normal Flow" style="shape=partialRectangle;html=1;whiteSpace=wrap;connectable=0;strokeColor=inherit;overflow=hidden;fillColor=none;top=0;left=0;bottom=0;right=0;pointerEvents=1;" vertex="1" parent="aYBez-xFLwSCWmGJiX5v-151">
          <mxGeometry width="226" height="92" as="geometry">
            <mxRectangle width="226" height="92" as="alternateBounds" />
          </mxGeometry>
        </mxCell>
        <mxCell id="aYBez-xFLwSCWmGJiX5v-153" value="" style="shape=partialRectangle;html=1;whiteSpace=wrap;connectable=0;strokeColor=inherit;overflow=hidden;fillColor=none;top=0;left=0;bottom=0;right=0;pointerEvents=1;" vertex="1" parent="aYBez-xFLwSCWmGJiX5v-151">
          <mxGeometry x="226" width="714" height="92" as="geometry">
            <mxRectangle width="714" height="92" as="alternateBounds" />
          </mxGeometry>
        </mxCell>
        <mxCell id="aYBez-xFLwSCWmGJiX5v-154" value="" style="shape=tableRow;horizontal=0;startSize=0;swimlaneHead=0;swimlaneBody=0;strokeColor=inherit;top=0;left=0;bottom=0;right=0;collapsible=0;dropTarget=0;fillColor=none;points=[[0,0.5],[1,0.5]];portConstraint=eastwest;" vertex="1" parent="aYBez-xFLwSCWmGJiX5v-135">
          <mxGeometry y="548" width="940" height="91" as="geometry" />
        </mxCell>
        <mxCell id="aYBez-xFLwSCWmGJiX5v-155" value="Exceptions" style="shape=partialRectangle;html=1;whiteSpace=wrap;connectable=0;strokeColor=inherit;overflow=hidden;fillColor=none;top=0;left=0;bottom=0;right=0;pointerEvents=1;" vertex="1" parent="aYBez-xFLwSCWmGJiX5v-154">
          <mxGeometry width="226" height="91" as="geometry">
            <mxRectangle width="226" height="91" as="alternateBounds" />
          </mxGeometry>
        </mxCell>
        <mxCell id="aYBez-xFLwSCWmGJiX5v-156" value="" style="shape=partialRectangle;html=1;whiteSpace=wrap;connectable=0;strokeColor=inherit;overflow=hidden;fillColor=none;top=0;left=0;bottom=0;right=0;pointerEvents=1;" vertex="1" parent="aYBez-xFLwSCWmGJiX5v-154">
          <mxGeometry x="226" width="714" height="91" as="geometry">
            <mxRectangle width="714" height="91" as="alternateBounds" />
          </mxGeometry>
        </mxCell>
        <mxCell id="aYBez-xFLwSCWmGJiX5v-157" value="" style="shape=tableRow;horizontal=0;startSize=0;swimlaneHead=0;swimlaneBody=0;strokeColor=inherit;top=0;left=0;bottom=0;right=0;collapsible=0;dropTarget=0;fillColor=none;points=[[0,0.5],[1,0.5]];portConstraint=eastwest;" vertex="1" parent="aYBez-xFLwSCWmGJiX5v-135">
          <mxGeometry y="639" width="940" height="91" as="geometry" />
        </mxCell>
        <mxCell id="aYBez-xFLwSCWmGJiX5v-158" value="Alternative Flow" style="shape=partialRectangle;html=1;whiteSpace=wrap;connectable=0;strokeColor=inherit;overflow=hidden;fillColor=none;top=0;left=0;bottom=0;right=0;pointerEvents=1;" vertex="1" parent="aYBez-xFLwSCWmGJiX5v-157">
          <mxGeometry width="226" height="91" as="geometry">
            <mxRectangle width="226" height="91" as="alternateBounds" />
          </mxGeometry>
        </mxCell>
        <mxCell id="aYBez-xFLwSCWmGJiX5v-159" value="" style="shape=partialRectangle;html=1;whiteSpace=wrap;connectable=0;strokeColor=inherit;overflow=hidden;fillColor=none;top=0;left=0;bottom=0;right=0;pointerEvents=1;" vertex="1" parent="aYBez-xFLwSCWmGJiX5v-157">
          <mxGeometry x="226" width="714" height="91" as="geometry">
            <mxRectangle width="714" height="91" as="alternateBounds" />
          </mxGeometry>
        </mxCell>
        <mxCell id="aYBez-xFLwSCWmGJiX5v-160" value="&amp;lt;&amp;lt;include&amp;gt;&amp;gt;" style="text;html=1;strokeColor=none;fillColor=none;align=center;verticalAlign=middle;whiteSpace=wrap;rounded=0;direction=south;rotation=45;" vertex="1" parent="1">
          <mxGeometry x="545" y="2280" width="30" height="60" as="geometry" />
        </mxCell>
        <mxCell id="aYBez-xFLwSCWmGJiX5v-166" value="Search By Names" style="ellipse;whiteSpace=wrap;html=1;" vertex="1" parent="1">
          <mxGeometry x="600" y="2235" width="120" height="70" as="geometry" />
        </mxCell>
        <mxCell id="aYBez-xFLwSCWmGJiX5v-167" value="&amp;lt;&amp;lt;include&amp;gt;&amp;gt;" style="text;html=1;strokeColor=none;fillColor=none;align=center;verticalAlign=middle;whiteSpace=wrap;rounded=0;direction=south;rotation=0;" vertex="1" parent="1">
          <mxGeometry x="545" y="2220" width="30" height="60" as="geometry" />
        </mxCell>
        <mxCell id="aYBez-xFLwSCWmGJiX5v-168" value="Show Items" style="ellipse;whiteSpace=wrap;html=1;" vertex="1" parent="1">
          <mxGeometry x="350" y="2470" width="120" height="70" as="geometry" />
        </mxCell>
        <mxCell id="aYBez-xFLwSCWmGJiX5v-174" value="&amp;lt;&amp;lt;include&amp;gt;&amp;gt;" style="text;html=1;strokeColor=none;fillColor=none;align=center;verticalAlign=middle;whiteSpace=wrap;rounded=0;direction=south;rotation=-90;" vertex="1" parent="1">
          <mxGeometry x="370" y="2350" width="30" height="60" as="geometry" />
        </mxCell>
        <mxCell id="aYBez-xFLwSCWmGJiX5v-175" value="" style="shape=table;startSize=0;container=1;collapsible=0;childLayout=tableLayout;" vertex="1" parent="1">
          <mxGeometry x="2150" y="1880" width="940" height="730" as="geometry" />
        </mxCell>
        <mxCell id="aYBez-xFLwSCWmGJiX5v-176" value="" style="shape=tableRow;horizontal=0;startSize=0;swimlaneHead=0;swimlaneBody=0;strokeColor=inherit;top=0;left=0;bottom=0;right=0;collapsible=0;dropTarget=0;fillColor=none;points=[[0,0.5],[1,0.5]];portConstraint=eastwest;" vertex="1" parent="aYBez-xFLwSCWmGJiX5v-175">
          <mxGeometry width="940" height="91" as="geometry" />
        </mxCell>
        <mxCell id="aYBez-xFLwSCWmGJiX5v-177" value="Use-Case Name" style="shape=partialRectangle;html=1;whiteSpace=wrap;connectable=0;strokeColor=inherit;overflow=hidden;fillColor=none;top=0;left=0;bottom=0;right=0;pointerEvents=1;" vertex="1" parent="aYBez-xFLwSCWmGJiX5v-176">
          <mxGeometry width="226" height="91" as="geometry">
            <mxRectangle width="226" height="91" as="alternateBounds" />
          </mxGeometry>
        </mxCell>
        <mxCell id="aYBez-xFLwSCWmGJiX5v-178" value="" style="shape=partialRectangle;html=1;whiteSpace=wrap;connectable=0;strokeColor=inherit;overflow=hidden;fillColor=none;top=0;left=0;bottom=0;right=0;pointerEvents=1;" vertex="1" parent="aYBez-xFLwSCWmGJiX5v-176">
          <mxGeometry x="226" width="714" height="91" as="geometry">
            <mxRectangle width="714" height="91" as="alternateBounds" />
          </mxGeometry>
        </mxCell>
        <mxCell id="aYBez-xFLwSCWmGJiX5v-179" value="" style="shape=tableRow;horizontal=0;startSize=0;swimlaneHead=0;swimlaneBody=0;strokeColor=inherit;top=0;left=0;bottom=0;right=0;collapsible=0;dropTarget=0;fillColor=none;points=[[0,0.5],[1,0.5]];portConstraint=eastwest;" vertex="1" parent="aYBez-xFLwSCWmGJiX5v-175">
          <mxGeometry y="91" width="940" height="92" as="geometry" />
        </mxCell>
        <mxCell id="aYBez-xFLwSCWmGJiX5v-180" value="Actor" style="shape=partialRectangle;html=1;whiteSpace=wrap;connectable=0;strokeColor=inherit;overflow=hidden;fillColor=none;top=0;left=0;bottom=0;right=0;pointerEvents=1;" vertex="1" parent="aYBez-xFLwSCWmGJiX5v-179">
          <mxGeometry width="226" height="92" as="geometry">
            <mxRectangle width="226" height="92" as="alternateBounds" />
          </mxGeometry>
        </mxCell>
        <mxCell id="aYBez-xFLwSCWmGJiX5v-181" value="" style="shape=partialRectangle;html=1;whiteSpace=wrap;connectable=0;strokeColor=inherit;overflow=hidden;fillColor=none;top=0;left=0;bottom=0;right=0;pointerEvents=1;" vertex="1" parent="aYBez-xFLwSCWmGJiX5v-179">
          <mxGeometry x="226" width="714" height="92" as="geometry">
            <mxRectangle width="714" height="92" as="alternateBounds" />
          </mxGeometry>
        </mxCell>
        <mxCell id="aYBez-xFLwSCWmGJiX5v-182" value="" style="shape=tableRow;horizontal=0;startSize=0;swimlaneHead=0;swimlaneBody=0;strokeColor=inherit;top=0;left=0;bottom=0;right=0;collapsible=0;dropTarget=0;fillColor=none;points=[[0,0.5],[1,0.5]];portConstraint=eastwest;" vertex="1" parent="aYBez-xFLwSCWmGJiX5v-175">
          <mxGeometry y="183" width="940" height="91" as="geometry" />
        </mxCell>
        <mxCell id="aYBez-xFLwSCWmGJiX5v-183" value="Description" style="shape=partialRectangle;html=1;whiteSpace=wrap;connectable=0;strokeColor=inherit;overflow=hidden;fillColor=none;top=0;left=0;bottom=0;right=0;pointerEvents=1;" vertex="1" parent="aYBez-xFLwSCWmGJiX5v-182">
          <mxGeometry width="226" height="91" as="geometry">
            <mxRectangle width="226" height="91" as="alternateBounds" />
          </mxGeometry>
        </mxCell>
        <mxCell id="aYBez-xFLwSCWmGJiX5v-184" value="" style="shape=partialRectangle;html=1;whiteSpace=wrap;connectable=0;strokeColor=inherit;overflow=hidden;fillColor=none;top=0;left=0;bottom=0;right=0;pointerEvents=1;" vertex="1" parent="aYBez-xFLwSCWmGJiX5v-182">
          <mxGeometry x="226" width="714" height="91" as="geometry">
            <mxRectangle width="714" height="91" as="alternateBounds" />
          </mxGeometry>
        </mxCell>
        <mxCell id="aYBez-xFLwSCWmGJiX5v-185" value="" style="shape=tableRow;horizontal=0;startSize=0;swimlaneHead=0;swimlaneBody=0;strokeColor=inherit;top=0;left=0;bottom=0;right=0;collapsible=0;dropTarget=0;fillColor=none;points=[[0,0.5],[1,0.5]];portConstraint=eastwest;" vertex="1" parent="aYBez-xFLwSCWmGJiX5v-175">
          <mxGeometry y="274" width="940" height="91" as="geometry" />
        </mxCell>
        <mxCell id="aYBez-xFLwSCWmGJiX5v-186" value="Preconditions" style="shape=partialRectangle;html=1;whiteSpace=wrap;connectable=0;strokeColor=inherit;overflow=hidden;fillColor=none;top=0;left=0;bottom=0;right=0;pointerEvents=1;" vertex="1" parent="aYBez-xFLwSCWmGJiX5v-185">
          <mxGeometry width="226" height="91" as="geometry">
            <mxRectangle width="226" height="91" as="alternateBounds" />
          </mxGeometry>
        </mxCell>
        <mxCell id="aYBez-xFLwSCWmGJiX5v-187" value="" style="shape=partialRectangle;html=1;whiteSpace=wrap;connectable=0;strokeColor=inherit;overflow=hidden;fillColor=none;top=0;left=0;bottom=0;right=0;pointerEvents=1;" vertex="1" parent="aYBez-xFLwSCWmGJiX5v-185">
          <mxGeometry x="226" width="714" height="91" as="geometry">
            <mxRectangle width="714" height="91" as="alternateBounds" />
          </mxGeometry>
        </mxCell>
        <mxCell id="aYBez-xFLwSCWmGJiX5v-188" value="" style="shape=tableRow;horizontal=0;startSize=0;swimlaneHead=0;swimlaneBody=0;strokeColor=inherit;top=0;left=0;bottom=0;right=0;collapsible=0;dropTarget=0;fillColor=none;points=[[0,0.5],[1,0.5]];portConstraint=eastwest;" vertex="1" parent="aYBez-xFLwSCWmGJiX5v-175">
          <mxGeometry y="365" width="940" height="91" as="geometry" />
        </mxCell>
        <mxCell id="aYBez-xFLwSCWmGJiX5v-189" value="Postconditions" style="shape=partialRectangle;html=1;whiteSpace=wrap;connectable=0;strokeColor=inherit;overflow=hidden;fillColor=none;top=0;left=0;bottom=0;right=0;pointerEvents=1;" vertex="1" parent="aYBez-xFLwSCWmGJiX5v-188">
          <mxGeometry width="226" height="91" as="geometry">
            <mxRectangle width="226" height="91" as="alternateBounds" />
          </mxGeometry>
        </mxCell>
        <mxCell id="aYBez-xFLwSCWmGJiX5v-190" value="" style="shape=partialRectangle;html=1;whiteSpace=wrap;connectable=0;strokeColor=inherit;overflow=hidden;fillColor=none;top=0;left=0;bottom=0;right=0;pointerEvents=1;" vertex="1" parent="aYBez-xFLwSCWmGJiX5v-188">
          <mxGeometry x="226" width="714" height="91" as="geometry">
            <mxRectangle width="714" height="91" as="alternateBounds" />
          </mxGeometry>
        </mxCell>
        <mxCell id="aYBez-xFLwSCWmGJiX5v-191" value="" style="shape=tableRow;horizontal=0;startSize=0;swimlaneHead=0;swimlaneBody=0;strokeColor=inherit;top=0;left=0;bottom=0;right=0;collapsible=0;dropTarget=0;fillColor=none;points=[[0,0.5],[1,0.5]];portConstraint=eastwest;" vertex="1" parent="aYBez-xFLwSCWmGJiX5v-175">
          <mxGeometry y="456" width="940" height="92" as="geometry" />
        </mxCell>
        <mxCell id="aYBez-xFLwSCWmGJiX5v-192" value="Normal Flow" style="shape=partialRectangle;html=1;whiteSpace=wrap;connectable=0;strokeColor=inherit;overflow=hidden;fillColor=none;top=0;left=0;bottom=0;right=0;pointerEvents=1;" vertex="1" parent="aYBez-xFLwSCWmGJiX5v-191">
          <mxGeometry width="226" height="92" as="geometry">
            <mxRectangle width="226" height="92" as="alternateBounds" />
          </mxGeometry>
        </mxCell>
        <mxCell id="aYBez-xFLwSCWmGJiX5v-193" value="" style="shape=partialRectangle;html=1;whiteSpace=wrap;connectable=0;strokeColor=inherit;overflow=hidden;fillColor=none;top=0;left=0;bottom=0;right=0;pointerEvents=1;" vertex="1" parent="aYBez-xFLwSCWmGJiX5v-191">
          <mxGeometry x="226" width="714" height="92" as="geometry">
            <mxRectangle width="714" height="92" as="alternateBounds" />
          </mxGeometry>
        </mxCell>
        <mxCell id="aYBez-xFLwSCWmGJiX5v-194" value="" style="shape=tableRow;horizontal=0;startSize=0;swimlaneHead=0;swimlaneBody=0;strokeColor=inherit;top=0;left=0;bottom=0;right=0;collapsible=0;dropTarget=0;fillColor=none;points=[[0,0.5],[1,0.5]];portConstraint=eastwest;" vertex="1" parent="aYBez-xFLwSCWmGJiX5v-175">
          <mxGeometry y="548" width="940" height="91" as="geometry" />
        </mxCell>
        <mxCell id="aYBez-xFLwSCWmGJiX5v-195" value="Exceptions" style="shape=partialRectangle;html=1;whiteSpace=wrap;connectable=0;strokeColor=inherit;overflow=hidden;fillColor=none;top=0;left=0;bottom=0;right=0;pointerEvents=1;" vertex="1" parent="aYBez-xFLwSCWmGJiX5v-194">
          <mxGeometry width="226" height="91" as="geometry">
            <mxRectangle width="226" height="91" as="alternateBounds" />
          </mxGeometry>
        </mxCell>
        <mxCell id="aYBez-xFLwSCWmGJiX5v-196" value="" style="shape=partialRectangle;html=1;whiteSpace=wrap;connectable=0;strokeColor=inherit;overflow=hidden;fillColor=none;top=0;left=0;bottom=0;right=0;pointerEvents=1;" vertex="1" parent="aYBez-xFLwSCWmGJiX5v-194">
          <mxGeometry x="226" width="714" height="91" as="geometry">
            <mxRectangle width="714" height="91" as="alternateBounds" />
          </mxGeometry>
        </mxCell>
        <mxCell id="aYBez-xFLwSCWmGJiX5v-197" value="" style="shape=tableRow;horizontal=0;startSize=0;swimlaneHead=0;swimlaneBody=0;strokeColor=inherit;top=0;left=0;bottom=0;right=0;collapsible=0;dropTarget=0;fillColor=none;points=[[0,0.5],[1,0.5]];portConstraint=eastwest;" vertex="1" parent="aYBez-xFLwSCWmGJiX5v-175">
          <mxGeometry y="639" width="940" height="91" as="geometry" />
        </mxCell>
        <mxCell id="aYBez-xFLwSCWmGJiX5v-198" value="Alternative Flow" style="shape=partialRectangle;html=1;whiteSpace=wrap;connectable=0;strokeColor=inherit;overflow=hidden;fillColor=none;top=0;left=0;bottom=0;right=0;pointerEvents=1;" vertex="1" parent="aYBez-xFLwSCWmGJiX5v-197">
          <mxGeometry width="226" height="91" as="geometry">
            <mxRectangle width="226" height="91" as="alternateBounds" />
          </mxGeometry>
        </mxCell>
        <mxCell id="aYBez-xFLwSCWmGJiX5v-199" value="" style="shape=partialRectangle;html=1;whiteSpace=wrap;connectable=0;strokeColor=inherit;overflow=hidden;fillColor=none;top=0;left=0;bottom=0;right=0;pointerEvents=1;" vertex="1" parent="aYBez-xFLwSCWmGJiX5v-197">
          <mxGeometry x="226" width="714" height="91" as="geometry">
            <mxRectangle width="714" height="91" as="alternateBounds" />
          </mxGeometry>
        </mxCell>
        <mxCell id="aYBez-xFLwSCWmGJiX5v-200" value="" style="shape=table;startSize=0;container=1;collapsible=0;childLayout=tableLayout;" vertex="1" parent="1">
          <mxGeometry x="4640" y="1890" width="940" height="730" as="geometry" />
        </mxCell>
        <mxCell id="aYBez-xFLwSCWmGJiX5v-201" value="" style="shape=tableRow;horizontal=0;startSize=0;swimlaneHead=0;swimlaneBody=0;strokeColor=inherit;top=0;left=0;bottom=0;right=0;collapsible=0;dropTarget=0;fillColor=none;points=[[0,0.5],[1,0.5]];portConstraint=eastwest;" vertex="1" parent="aYBez-xFLwSCWmGJiX5v-200">
          <mxGeometry width="940" height="91" as="geometry" />
        </mxCell>
        <mxCell id="aYBez-xFLwSCWmGJiX5v-202" value="Use-Case Name" style="shape=partialRectangle;html=1;whiteSpace=wrap;connectable=0;strokeColor=inherit;overflow=hidden;fillColor=none;top=0;left=0;bottom=0;right=0;pointerEvents=1;" vertex="1" parent="aYBez-xFLwSCWmGJiX5v-201">
          <mxGeometry width="226" height="91" as="geometry">
            <mxRectangle width="226" height="91" as="alternateBounds" />
          </mxGeometry>
        </mxCell>
        <mxCell id="aYBez-xFLwSCWmGJiX5v-203" value="" style="shape=partialRectangle;html=1;whiteSpace=wrap;connectable=0;strokeColor=inherit;overflow=hidden;fillColor=none;top=0;left=0;bottom=0;right=0;pointerEvents=1;" vertex="1" parent="aYBez-xFLwSCWmGJiX5v-201">
          <mxGeometry x="226" width="714" height="91" as="geometry">
            <mxRectangle width="714" height="91" as="alternateBounds" />
          </mxGeometry>
        </mxCell>
        <mxCell id="aYBez-xFLwSCWmGJiX5v-204" value="" style="shape=tableRow;horizontal=0;startSize=0;swimlaneHead=0;swimlaneBody=0;strokeColor=inherit;top=0;left=0;bottom=0;right=0;collapsible=0;dropTarget=0;fillColor=none;points=[[0,0.5],[1,0.5]];portConstraint=eastwest;" vertex="1" parent="aYBez-xFLwSCWmGJiX5v-200">
          <mxGeometry y="91" width="940" height="92" as="geometry" />
        </mxCell>
        <mxCell id="aYBez-xFLwSCWmGJiX5v-205" value="Actor" style="shape=partialRectangle;html=1;whiteSpace=wrap;connectable=0;strokeColor=inherit;overflow=hidden;fillColor=none;top=0;left=0;bottom=0;right=0;pointerEvents=1;" vertex="1" parent="aYBez-xFLwSCWmGJiX5v-204">
          <mxGeometry width="226" height="92" as="geometry">
            <mxRectangle width="226" height="92" as="alternateBounds" />
          </mxGeometry>
        </mxCell>
        <mxCell id="aYBez-xFLwSCWmGJiX5v-206" value="" style="shape=partialRectangle;html=1;whiteSpace=wrap;connectable=0;strokeColor=inherit;overflow=hidden;fillColor=none;top=0;left=0;bottom=0;right=0;pointerEvents=1;" vertex="1" parent="aYBez-xFLwSCWmGJiX5v-204">
          <mxGeometry x="226" width="714" height="92" as="geometry">
            <mxRectangle width="714" height="92" as="alternateBounds" />
          </mxGeometry>
        </mxCell>
        <mxCell id="aYBez-xFLwSCWmGJiX5v-207" value="" style="shape=tableRow;horizontal=0;startSize=0;swimlaneHead=0;swimlaneBody=0;strokeColor=inherit;top=0;left=0;bottom=0;right=0;collapsible=0;dropTarget=0;fillColor=none;points=[[0,0.5],[1,0.5]];portConstraint=eastwest;" vertex="1" parent="aYBez-xFLwSCWmGJiX5v-200">
          <mxGeometry y="183" width="940" height="91" as="geometry" />
        </mxCell>
        <mxCell id="aYBez-xFLwSCWmGJiX5v-208" value="Description" style="shape=partialRectangle;html=1;whiteSpace=wrap;connectable=0;strokeColor=inherit;overflow=hidden;fillColor=none;top=0;left=0;bottom=0;right=0;pointerEvents=1;" vertex="1" parent="aYBez-xFLwSCWmGJiX5v-207">
          <mxGeometry width="226" height="91" as="geometry">
            <mxRectangle width="226" height="91" as="alternateBounds" />
          </mxGeometry>
        </mxCell>
        <mxCell id="aYBez-xFLwSCWmGJiX5v-209" value="" style="shape=partialRectangle;html=1;whiteSpace=wrap;connectable=0;strokeColor=inherit;overflow=hidden;fillColor=none;top=0;left=0;bottom=0;right=0;pointerEvents=1;" vertex="1" parent="aYBez-xFLwSCWmGJiX5v-207">
          <mxGeometry x="226" width="714" height="91" as="geometry">
            <mxRectangle width="714" height="91" as="alternateBounds" />
          </mxGeometry>
        </mxCell>
        <mxCell id="aYBez-xFLwSCWmGJiX5v-210" value="" style="shape=tableRow;horizontal=0;startSize=0;swimlaneHead=0;swimlaneBody=0;strokeColor=inherit;top=0;left=0;bottom=0;right=0;collapsible=0;dropTarget=0;fillColor=none;points=[[0,0.5],[1,0.5]];portConstraint=eastwest;" vertex="1" parent="aYBez-xFLwSCWmGJiX5v-200">
          <mxGeometry y="274" width="940" height="91" as="geometry" />
        </mxCell>
        <mxCell id="aYBez-xFLwSCWmGJiX5v-211" value="Preconditions" style="shape=partialRectangle;html=1;whiteSpace=wrap;connectable=0;strokeColor=inherit;overflow=hidden;fillColor=none;top=0;left=0;bottom=0;right=0;pointerEvents=1;" vertex="1" parent="aYBez-xFLwSCWmGJiX5v-210">
          <mxGeometry width="226" height="91" as="geometry">
            <mxRectangle width="226" height="91" as="alternateBounds" />
          </mxGeometry>
        </mxCell>
        <mxCell id="aYBez-xFLwSCWmGJiX5v-212" value="" style="shape=partialRectangle;html=1;whiteSpace=wrap;connectable=0;strokeColor=inherit;overflow=hidden;fillColor=none;top=0;left=0;bottom=0;right=0;pointerEvents=1;" vertex="1" parent="aYBez-xFLwSCWmGJiX5v-210">
          <mxGeometry x="226" width="714" height="91" as="geometry">
            <mxRectangle width="714" height="91" as="alternateBounds" />
          </mxGeometry>
        </mxCell>
        <mxCell id="aYBez-xFLwSCWmGJiX5v-213" value="" style="shape=tableRow;horizontal=0;startSize=0;swimlaneHead=0;swimlaneBody=0;strokeColor=inherit;top=0;left=0;bottom=0;right=0;collapsible=0;dropTarget=0;fillColor=none;points=[[0,0.5],[1,0.5]];portConstraint=eastwest;" vertex="1" parent="aYBez-xFLwSCWmGJiX5v-200">
          <mxGeometry y="365" width="940" height="91" as="geometry" />
        </mxCell>
        <mxCell id="aYBez-xFLwSCWmGJiX5v-214" value="Postconditions" style="shape=partialRectangle;html=1;whiteSpace=wrap;connectable=0;strokeColor=inherit;overflow=hidden;fillColor=none;top=0;left=0;bottom=0;right=0;pointerEvents=1;" vertex="1" parent="aYBez-xFLwSCWmGJiX5v-213">
          <mxGeometry width="226" height="91" as="geometry">
            <mxRectangle width="226" height="91" as="alternateBounds" />
          </mxGeometry>
        </mxCell>
        <mxCell id="aYBez-xFLwSCWmGJiX5v-215" value="" style="shape=partialRectangle;html=1;whiteSpace=wrap;connectable=0;strokeColor=inherit;overflow=hidden;fillColor=none;top=0;left=0;bottom=0;right=0;pointerEvents=1;" vertex="1" parent="aYBez-xFLwSCWmGJiX5v-213">
          <mxGeometry x="226" width="714" height="91" as="geometry">
            <mxRectangle width="714" height="91" as="alternateBounds" />
          </mxGeometry>
        </mxCell>
        <mxCell id="aYBez-xFLwSCWmGJiX5v-216" value="" style="shape=tableRow;horizontal=0;startSize=0;swimlaneHead=0;swimlaneBody=0;strokeColor=inherit;top=0;left=0;bottom=0;right=0;collapsible=0;dropTarget=0;fillColor=none;points=[[0,0.5],[1,0.5]];portConstraint=eastwest;" vertex="1" parent="aYBez-xFLwSCWmGJiX5v-200">
          <mxGeometry y="456" width="940" height="92" as="geometry" />
        </mxCell>
        <mxCell id="aYBez-xFLwSCWmGJiX5v-217" value="Normal Flow" style="shape=partialRectangle;html=1;whiteSpace=wrap;connectable=0;strokeColor=inherit;overflow=hidden;fillColor=none;top=0;left=0;bottom=0;right=0;pointerEvents=1;" vertex="1" parent="aYBez-xFLwSCWmGJiX5v-216">
          <mxGeometry width="226" height="92" as="geometry">
            <mxRectangle width="226" height="92" as="alternateBounds" />
          </mxGeometry>
        </mxCell>
        <mxCell id="aYBez-xFLwSCWmGJiX5v-218" value="" style="shape=partialRectangle;html=1;whiteSpace=wrap;connectable=0;strokeColor=inherit;overflow=hidden;fillColor=none;top=0;left=0;bottom=0;right=0;pointerEvents=1;" vertex="1" parent="aYBez-xFLwSCWmGJiX5v-216">
          <mxGeometry x="226" width="714" height="92" as="geometry">
            <mxRectangle width="714" height="92" as="alternateBounds" />
          </mxGeometry>
        </mxCell>
        <mxCell id="aYBez-xFLwSCWmGJiX5v-219" value="" style="shape=tableRow;horizontal=0;startSize=0;swimlaneHead=0;swimlaneBody=0;strokeColor=inherit;top=0;left=0;bottom=0;right=0;collapsible=0;dropTarget=0;fillColor=none;points=[[0,0.5],[1,0.5]];portConstraint=eastwest;" vertex="1" parent="aYBez-xFLwSCWmGJiX5v-200">
          <mxGeometry y="548" width="940" height="91" as="geometry" />
        </mxCell>
        <mxCell id="aYBez-xFLwSCWmGJiX5v-220" value="Exceptions" style="shape=partialRectangle;html=1;whiteSpace=wrap;connectable=0;strokeColor=inherit;overflow=hidden;fillColor=none;top=0;left=0;bottom=0;right=0;pointerEvents=1;" vertex="1" parent="aYBez-xFLwSCWmGJiX5v-219">
          <mxGeometry width="226" height="91" as="geometry">
            <mxRectangle width="226" height="91" as="alternateBounds" />
          </mxGeometry>
        </mxCell>
        <mxCell id="aYBez-xFLwSCWmGJiX5v-221" value="" style="shape=partialRectangle;html=1;whiteSpace=wrap;connectable=0;strokeColor=inherit;overflow=hidden;fillColor=none;top=0;left=0;bottom=0;right=0;pointerEvents=1;" vertex="1" parent="aYBez-xFLwSCWmGJiX5v-219">
          <mxGeometry x="226" width="714" height="91" as="geometry">
            <mxRectangle width="714" height="91" as="alternateBounds" />
          </mxGeometry>
        </mxCell>
        <mxCell id="aYBez-xFLwSCWmGJiX5v-222" value="" style="shape=tableRow;horizontal=0;startSize=0;swimlaneHead=0;swimlaneBody=0;strokeColor=inherit;top=0;left=0;bottom=0;right=0;collapsible=0;dropTarget=0;fillColor=none;points=[[0,0.5],[1,0.5]];portConstraint=eastwest;" vertex="1" parent="aYBez-xFLwSCWmGJiX5v-200">
          <mxGeometry y="639" width="940" height="91" as="geometry" />
        </mxCell>
        <mxCell id="aYBez-xFLwSCWmGJiX5v-223" value="Alternative Flow" style="shape=partialRectangle;html=1;whiteSpace=wrap;connectable=0;strokeColor=inherit;overflow=hidden;fillColor=none;top=0;left=0;bottom=0;right=0;pointerEvents=1;" vertex="1" parent="aYBez-xFLwSCWmGJiX5v-222">
          <mxGeometry width="226" height="91" as="geometry">
            <mxRectangle width="226" height="91" as="alternateBounds" />
          </mxGeometry>
        </mxCell>
        <mxCell id="aYBez-xFLwSCWmGJiX5v-224" value="" style="shape=partialRectangle;html=1;whiteSpace=wrap;connectable=0;strokeColor=inherit;overflow=hidden;fillColor=none;top=0;left=0;bottom=0;right=0;pointerEvents=1;" vertex="1" parent="aYBez-xFLwSCWmGJiX5v-222">
          <mxGeometry x="226" width="714" height="91" as="geometry">
            <mxRectangle width="714" height="91" as="alternateBounds" />
          </mxGeometry>
        </mxCell>
        <mxCell id="aYBez-xFLwSCWmGJiX5v-225" value="" style="shape=table;startSize=0;container=1;collapsible=0;childLayout=tableLayout;" vertex="1" parent="1">
          <mxGeometry x="3350" y="1900" width="940" height="730" as="geometry" />
        </mxCell>
        <mxCell id="aYBez-xFLwSCWmGJiX5v-226" value="" style="shape=tableRow;horizontal=0;startSize=0;swimlaneHead=0;swimlaneBody=0;strokeColor=inherit;top=0;left=0;bottom=0;right=0;collapsible=0;dropTarget=0;fillColor=none;points=[[0,0.5],[1,0.5]];portConstraint=eastwest;" vertex="1" parent="aYBez-xFLwSCWmGJiX5v-225">
          <mxGeometry width="940" height="91" as="geometry" />
        </mxCell>
        <mxCell id="aYBez-xFLwSCWmGJiX5v-227" value="Use-Case Name" style="shape=partialRectangle;html=1;whiteSpace=wrap;connectable=0;strokeColor=inherit;overflow=hidden;fillColor=none;top=0;left=0;bottom=0;right=0;pointerEvents=1;" vertex="1" parent="aYBez-xFLwSCWmGJiX5v-226">
          <mxGeometry width="226" height="91" as="geometry">
            <mxRectangle width="226" height="91" as="alternateBounds" />
          </mxGeometry>
        </mxCell>
        <mxCell id="aYBez-xFLwSCWmGJiX5v-228" value="" style="shape=partialRectangle;html=1;whiteSpace=wrap;connectable=0;strokeColor=inherit;overflow=hidden;fillColor=none;top=0;left=0;bottom=0;right=0;pointerEvents=1;" vertex="1" parent="aYBez-xFLwSCWmGJiX5v-226">
          <mxGeometry x="226" width="714" height="91" as="geometry">
            <mxRectangle width="714" height="91" as="alternateBounds" />
          </mxGeometry>
        </mxCell>
        <mxCell id="aYBez-xFLwSCWmGJiX5v-229" value="" style="shape=tableRow;horizontal=0;startSize=0;swimlaneHead=0;swimlaneBody=0;strokeColor=inherit;top=0;left=0;bottom=0;right=0;collapsible=0;dropTarget=0;fillColor=none;points=[[0,0.5],[1,0.5]];portConstraint=eastwest;" vertex="1" parent="aYBez-xFLwSCWmGJiX5v-225">
          <mxGeometry y="91" width="940" height="92" as="geometry" />
        </mxCell>
        <mxCell id="aYBez-xFLwSCWmGJiX5v-230" value="Actor" style="shape=partialRectangle;html=1;whiteSpace=wrap;connectable=0;strokeColor=inherit;overflow=hidden;fillColor=none;top=0;left=0;bottom=0;right=0;pointerEvents=1;" vertex="1" parent="aYBez-xFLwSCWmGJiX5v-229">
          <mxGeometry width="226" height="92" as="geometry">
            <mxRectangle width="226" height="92" as="alternateBounds" />
          </mxGeometry>
        </mxCell>
        <mxCell id="aYBez-xFLwSCWmGJiX5v-231" value="" style="shape=partialRectangle;html=1;whiteSpace=wrap;connectable=0;strokeColor=inherit;overflow=hidden;fillColor=none;top=0;left=0;bottom=0;right=0;pointerEvents=1;" vertex="1" parent="aYBez-xFLwSCWmGJiX5v-229">
          <mxGeometry x="226" width="714" height="92" as="geometry">
            <mxRectangle width="714" height="92" as="alternateBounds" />
          </mxGeometry>
        </mxCell>
        <mxCell id="aYBez-xFLwSCWmGJiX5v-232" value="" style="shape=tableRow;horizontal=0;startSize=0;swimlaneHead=0;swimlaneBody=0;strokeColor=inherit;top=0;left=0;bottom=0;right=0;collapsible=0;dropTarget=0;fillColor=none;points=[[0,0.5],[1,0.5]];portConstraint=eastwest;" vertex="1" parent="aYBez-xFLwSCWmGJiX5v-225">
          <mxGeometry y="183" width="940" height="91" as="geometry" />
        </mxCell>
        <mxCell id="aYBez-xFLwSCWmGJiX5v-233" value="Description" style="shape=partialRectangle;html=1;whiteSpace=wrap;connectable=0;strokeColor=inherit;overflow=hidden;fillColor=none;top=0;left=0;bottom=0;right=0;pointerEvents=1;" vertex="1" parent="aYBez-xFLwSCWmGJiX5v-232">
          <mxGeometry width="226" height="91" as="geometry">
            <mxRectangle width="226" height="91" as="alternateBounds" />
          </mxGeometry>
        </mxCell>
        <mxCell id="aYBez-xFLwSCWmGJiX5v-234" value="" style="shape=partialRectangle;html=1;whiteSpace=wrap;connectable=0;strokeColor=inherit;overflow=hidden;fillColor=none;top=0;left=0;bottom=0;right=0;pointerEvents=1;" vertex="1" parent="aYBez-xFLwSCWmGJiX5v-232">
          <mxGeometry x="226" width="714" height="91" as="geometry">
            <mxRectangle width="714" height="91" as="alternateBounds" />
          </mxGeometry>
        </mxCell>
        <mxCell id="aYBez-xFLwSCWmGJiX5v-235" value="" style="shape=tableRow;horizontal=0;startSize=0;swimlaneHead=0;swimlaneBody=0;strokeColor=inherit;top=0;left=0;bottom=0;right=0;collapsible=0;dropTarget=0;fillColor=none;points=[[0,0.5],[1,0.5]];portConstraint=eastwest;" vertex="1" parent="aYBez-xFLwSCWmGJiX5v-225">
          <mxGeometry y="274" width="940" height="91" as="geometry" />
        </mxCell>
        <mxCell id="aYBez-xFLwSCWmGJiX5v-236" value="Preconditions" style="shape=partialRectangle;html=1;whiteSpace=wrap;connectable=0;strokeColor=inherit;overflow=hidden;fillColor=none;top=0;left=0;bottom=0;right=0;pointerEvents=1;" vertex="1" parent="aYBez-xFLwSCWmGJiX5v-235">
          <mxGeometry width="226" height="91" as="geometry">
            <mxRectangle width="226" height="91" as="alternateBounds" />
          </mxGeometry>
        </mxCell>
        <mxCell id="aYBez-xFLwSCWmGJiX5v-237" value="" style="shape=partialRectangle;html=1;whiteSpace=wrap;connectable=0;strokeColor=inherit;overflow=hidden;fillColor=none;top=0;left=0;bottom=0;right=0;pointerEvents=1;" vertex="1" parent="aYBez-xFLwSCWmGJiX5v-235">
          <mxGeometry x="226" width="714" height="91" as="geometry">
            <mxRectangle width="714" height="91" as="alternateBounds" />
          </mxGeometry>
        </mxCell>
        <mxCell id="aYBez-xFLwSCWmGJiX5v-238" value="" style="shape=tableRow;horizontal=0;startSize=0;swimlaneHead=0;swimlaneBody=0;strokeColor=inherit;top=0;left=0;bottom=0;right=0;collapsible=0;dropTarget=0;fillColor=none;points=[[0,0.5],[1,0.5]];portConstraint=eastwest;" vertex="1" parent="aYBez-xFLwSCWmGJiX5v-225">
          <mxGeometry y="365" width="940" height="91" as="geometry" />
        </mxCell>
        <mxCell id="aYBez-xFLwSCWmGJiX5v-239" value="Postconditions" style="shape=partialRectangle;html=1;whiteSpace=wrap;connectable=0;strokeColor=inherit;overflow=hidden;fillColor=none;top=0;left=0;bottom=0;right=0;pointerEvents=1;" vertex="1" parent="aYBez-xFLwSCWmGJiX5v-238">
          <mxGeometry width="226" height="91" as="geometry">
            <mxRectangle width="226" height="91" as="alternateBounds" />
          </mxGeometry>
        </mxCell>
        <mxCell id="aYBez-xFLwSCWmGJiX5v-240" value="" style="shape=partialRectangle;html=1;whiteSpace=wrap;connectable=0;strokeColor=inherit;overflow=hidden;fillColor=none;top=0;left=0;bottom=0;right=0;pointerEvents=1;" vertex="1" parent="aYBez-xFLwSCWmGJiX5v-238">
          <mxGeometry x="226" width="714" height="91" as="geometry">
            <mxRectangle width="714" height="91" as="alternateBounds" />
          </mxGeometry>
        </mxCell>
        <mxCell id="aYBez-xFLwSCWmGJiX5v-241" value="" style="shape=tableRow;horizontal=0;startSize=0;swimlaneHead=0;swimlaneBody=0;strokeColor=inherit;top=0;left=0;bottom=0;right=0;collapsible=0;dropTarget=0;fillColor=none;points=[[0,0.5],[1,0.5]];portConstraint=eastwest;" vertex="1" parent="aYBez-xFLwSCWmGJiX5v-225">
          <mxGeometry y="456" width="940" height="92" as="geometry" />
        </mxCell>
        <mxCell id="aYBez-xFLwSCWmGJiX5v-242" value="Normal Flow" style="shape=partialRectangle;html=1;whiteSpace=wrap;connectable=0;strokeColor=inherit;overflow=hidden;fillColor=none;top=0;left=0;bottom=0;right=0;pointerEvents=1;" vertex="1" parent="aYBez-xFLwSCWmGJiX5v-241">
          <mxGeometry width="226" height="92" as="geometry">
            <mxRectangle width="226" height="92" as="alternateBounds" />
          </mxGeometry>
        </mxCell>
        <mxCell id="aYBez-xFLwSCWmGJiX5v-243" value="" style="shape=partialRectangle;html=1;whiteSpace=wrap;connectable=0;strokeColor=inherit;overflow=hidden;fillColor=none;top=0;left=0;bottom=0;right=0;pointerEvents=1;" vertex="1" parent="aYBez-xFLwSCWmGJiX5v-241">
          <mxGeometry x="226" width="714" height="92" as="geometry">
            <mxRectangle width="714" height="92" as="alternateBounds" />
          </mxGeometry>
        </mxCell>
        <mxCell id="aYBez-xFLwSCWmGJiX5v-244" value="" style="shape=tableRow;horizontal=0;startSize=0;swimlaneHead=0;swimlaneBody=0;strokeColor=inherit;top=0;left=0;bottom=0;right=0;collapsible=0;dropTarget=0;fillColor=none;points=[[0,0.5],[1,0.5]];portConstraint=eastwest;" vertex="1" parent="aYBez-xFLwSCWmGJiX5v-225">
          <mxGeometry y="548" width="940" height="91" as="geometry" />
        </mxCell>
        <mxCell id="aYBez-xFLwSCWmGJiX5v-245" value="Exceptions" style="shape=partialRectangle;html=1;whiteSpace=wrap;connectable=0;strokeColor=inherit;overflow=hidden;fillColor=none;top=0;left=0;bottom=0;right=0;pointerEvents=1;" vertex="1" parent="aYBez-xFLwSCWmGJiX5v-244">
          <mxGeometry width="226" height="91" as="geometry">
            <mxRectangle width="226" height="91" as="alternateBounds" />
          </mxGeometry>
        </mxCell>
        <mxCell id="aYBez-xFLwSCWmGJiX5v-246" value="" style="shape=partialRectangle;html=1;whiteSpace=wrap;connectable=0;strokeColor=inherit;overflow=hidden;fillColor=none;top=0;left=0;bottom=0;right=0;pointerEvents=1;" vertex="1" parent="aYBez-xFLwSCWmGJiX5v-244">
          <mxGeometry x="226" width="714" height="91" as="geometry">
            <mxRectangle width="714" height="91" as="alternateBounds" />
          </mxGeometry>
        </mxCell>
        <mxCell id="aYBez-xFLwSCWmGJiX5v-247" value="" style="shape=tableRow;horizontal=0;startSize=0;swimlaneHead=0;swimlaneBody=0;strokeColor=inherit;top=0;left=0;bottom=0;right=0;collapsible=0;dropTarget=0;fillColor=none;points=[[0,0.5],[1,0.5]];portConstraint=eastwest;" vertex="1" parent="aYBez-xFLwSCWmGJiX5v-225">
          <mxGeometry y="639" width="940" height="91" as="geometry" />
        </mxCell>
        <mxCell id="aYBez-xFLwSCWmGJiX5v-248" value="Alternative Flow" style="shape=partialRectangle;html=1;whiteSpace=wrap;connectable=0;strokeColor=inherit;overflow=hidden;fillColor=none;top=0;left=0;bottom=0;right=0;pointerEvents=1;" vertex="1" parent="aYBez-xFLwSCWmGJiX5v-247">
          <mxGeometry width="226" height="91" as="geometry">
            <mxRectangle width="226" height="91" as="alternateBounds" />
          </mxGeometry>
        </mxCell>
        <mxCell id="aYBez-xFLwSCWmGJiX5v-249" value="" style="shape=partialRectangle;html=1;whiteSpace=wrap;connectable=0;strokeColor=inherit;overflow=hidden;fillColor=none;top=0;left=0;bottom=0;right=0;pointerEvents=1;" vertex="1" parent="aYBez-xFLwSCWmGJiX5v-247">
          <mxGeometry x="226" width="714" height="91" as="geometry">
            <mxRectangle width="714" height="91" as="alternateBounds" />
          </mxGeometry>
        </mxCell>
        <mxCell id="aYBez-xFLwSCWmGJiX5v-250" value="" style="shape=table;startSize=0;container=1;collapsible=0;childLayout=tableLayout;" vertex="1" parent="1">
          <mxGeometry x="4640" y="980" width="940" height="730" as="geometry" />
        </mxCell>
        <mxCell id="aYBez-xFLwSCWmGJiX5v-251" value="" style="shape=tableRow;horizontal=0;startSize=0;swimlaneHead=0;swimlaneBody=0;strokeColor=inherit;top=0;left=0;bottom=0;right=0;collapsible=0;dropTarget=0;fillColor=none;points=[[0,0.5],[1,0.5]];portConstraint=eastwest;" vertex="1" parent="aYBez-xFLwSCWmGJiX5v-250">
          <mxGeometry width="940" height="91" as="geometry" />
        </mxCell>
        <mxCell id="aYBez-xFLwSCWmGJiX5v-252" value="Use-Case Name" style="shape=partialRectangle;html=1;whiteSpace=wrap;connectable=0;strokeColor=inherit;overflow=hidden;fillColor=none;top=0;left=0;bottom=0;right=0;pointerEvents=1;" vertex="1" parent="aYBez-xFLwSCWmGJiX5v-251">
          <mxGeometry width="226" height="91" as="geometry">
            <mxRectangle width="226" height="91" as="alternateBounds" />
          </mxGeometry>
        </mxCell>
        <mxCell id="aYBez-xFLwSCWmGJiX5v-253" value="" style="shape=partialRectangle;html=1;whiteSpace=wrap;connectable=0;strokeColor=inherit;overflow=hidden;fillColor=none;top=0;left=0;bottom=0;right=0;pointerEvents=1;" vertex="1" parent="aYBez-xFLwSCWmGJiX5v-251">
          <mxGeometry x="226" width="714" height="91" as="geometry">
            <mxRectangle width="714" height="91" as="alternateBounds" />
          </mxGeometry>
        </mxCell>
        <mxCell id="aYBez-xFLwSCWmGJiX5v-254" value="" style="shape=tableRow;horizontal=0;startSize=0;swimlaneHead=0;swimlaneBody=0;strokeColor=inherit;top=0;left=0;bottom=0;right=0;collapsible=0;dropTarget=0;fillColor=none;points=[[0,0.5],[1,0.5]];portConstraint=eastwest;" vertex="1" parent="aYBez-xFLwSCWmGJiX5v-250">
          <mxGeometry y="91" width="940" height="92" as="geometry" />
        </mxCell>
        <mxCell id="aYBez-xFLwSCWmGJiX5v-255" value="Actor" style="shape=partialRectangle;html=1;whiteSpace=wrap;connectable=0;strokeColor=inherit;overflow=hidden;fillColor=none;top=0;left=0;bottom=0;right=0;pointerEvents=1;" vertex="1" parent="aYBez-xFLwSCWmGJiX5v-254">
          <mxGeometry width="226" height="92" as="geometry">
            <mxRectangle width="226" height="92" as="alternateBounds" />
          </mxGeometry>
        </mxCell>
        <mxCell id="aYBez-xFLwSCWmGJiX5v-256" value="" style="shape=partialRectangle;html=1;whiteSpace=wrap;connectable=0;strokeColor=inherit;overflow=hidden;fillColor=none;top=0;left=0;bottom=0;right=0;pointerEvents=1;" vertex="1" parent="aYBez-xFLwSCWmGJiX5v-254">
          <mxGeometry x="226" width="714" height="92" as="geometry">
            <mxRectangle width="714" height="92" as="alternateBounds" />
          </mxGeometry>
        </mxCell>
        <mxCell id="aYBez-xFLwSCWmGJiX5v-257" value="" style="shape=tableRow;horizontal=0;startSize=0;swimlaneHead=0;swimlaneBody=0;strokeColor=inherit;top=0;left=0;bottom=0;right=0;collapsible=0;dropTarget=0;fillColor=none;points=[[0,0.5],[1,0.5]];portConstraint=eastwest;" vertex="1" parent="aYBez-xFLwSCWmGJiX5v-250">
          <mxGeometry y="183" width="940" height="91" as="geometry" />
        </mxCell>
        <mxCell id="aYBez-xFLwSCWmGJiX5v-258" value="Description" style="shape=partialRectangle;html=1;whiteSpace=wrap;connectable=0;strokeColor=inherit;overflow=hidden;fillColor=none;top=0;left=0;bottom=0;right=0;pointerEvents=1;" vertex="1" parent="aYBez-xFLwSCWmGJiX5v-257">
          <mxGeometry width="226" height="91" as="geometry">
            <mxRectangle width="226" height="91" as="alternateBounds" />
          </mxGeometry>
        </mxCell>
        <mxCell id="aYBez-xFLwSCWmGJiX5v-259" value="" style="shape=partialRectangle;html=1;whiteSpace=wrap;connectable=0;strokeColor=inherit;overflow=hidden;fillColor=none;top=0;left=0;bottom=0;right=0;pointerEvents=1;" vertex="1" parent="aYBez-xFLwSCWmGJiX5v-257">
          <mxGeometry x="226" width="714" height="91" as="geometry">
            <mxRectangle width="714" height="91" as="alternateBounds" />
          </mxGeometry>
        </mxCell>
        <mxCell id="aYBez-xFLwSCWmGJiX5v-260" value="" style="shape=tableRow;horizontal=0;startSize=0;swimlaneHead=0;swimlaneBody=0;strokeColor=inherit;top=0;left=0;bottom=0;right=0;collapsible=0;dropTarget=0;fillColor=none;points=[[0,0.5],[1,0.5]];portConstraint=eastwest;" vertex="1" parent="aYBez-xFLwSCWmGJiX5v-250">
          <mxGeometry y="274" width="940" height="91" as="geometry" />
        </mxCell>
        <mxCell id="aYBez-xFLwSCWmGJiX5v-261" value="Preconditions" style="shape=partialRectangle;html=1;whiteSpace=wrap;connectable=0;strokeColor=inherit;overflow=hidden;fillColor=none;top=0;left=0;bottom=0;right=0;pointerEvents=1;" vertex="1" parent="aYBez-xFLwSCWmGJiX5v-260">
          <mxGeometry width="226" height="91" as="geometry">
            <mxRectangle width="226" height="91" as="alternateBounds" />
          </mxGeometry>
        </mxCell>
        <mxCell id="aYBez-xFLwSCWmGJiX5v-262" value="" style="shape=partialRectangle;html=1;whiteSpace=wrap;connectable=0;strokeColor=inherit;overflow=hidden;fillColor=none;top=0;left=0;bottom=0;right=0;pointerEvents=1;" vertex="1" parent="aYBez-xFLwSCWmGJiX5v-260">
          <mxGeometry x="226" width="714" height="91" as="geometry">
            <mxRectangle width="714" height="91" as="alternateBounds" />
          </mxGeometry>
        </mxCell>
        <mxCell id="aYBez-xFLwSCWmGJiX5v-263" value="" style="shape=tableRow;horizontal=0;startSize=0;swimlaneHead=0;swimlaneBody=0;strokeColor=inherit;top=0;left=0;bottom=0;right=0;collapsible=0;dropTarget=0;fillColor=none;points=[[0,0.5],[1,0.5]];portConstraint=eastwest;" vertex="1" parent="aYBez-xFLwSCWmGJiX5v-250">
          <mxGeometry y="365" width="940" height="91" as="geometry" />
        </mxCell>
        <mxCell id="aYBez-xFLwSCWmGJiX5v-264" value="Postconditions" style="shape=partialRectangle;html=1;whiteSpace=wrap;connectable=0;strokeColor=inherit;overflow=hidden;fillColor=none;top=0;left=0;bottom=0;right=0;pointerEvents=1;" vertex="1" parent="aYBez-xFLwSCWmGJiX5v-263">
          <mxGeometry width="226" height="91" as="geometry">
            <mxRectangle width="226" height="91" as="alternateBounds" />
          </mxGeometry>
        </mxCell>
        <mxCell id="aYBez-xFLwSCWmGJiX5v-265" value="" style="shape=partialRectangle;html=1;whiteSpace=wrap;connectable=0;strokeColor=inherit;overflow=hidden;fillColor=none;top=0;left=0;bottom=0;right=0;pointerEvents=1;" vertex="1" parent="aYBez-xFLwSCWmGJiX5v-263">
          <mxGeometry x="226" width="714" height="91" as="geometry">
            <mxRectangle width="714" height="91" as="alternateBounds" />
          </mxGeometry>
        </mxCell>
        <mxCell id="aYBez-xFLwSCWmGJiX5v-266" value="" style="shape=tableRow;horizontal=0;startSize=0;swimlaneHead=0;swimlaneBody=0;strokeColor=inherit;top=0;left=0;bottom=0;right=0;collapsible=0;dropTarget=0;fillColor=none;points=[[0,0.5],[1,0.5]];portConstraint=eastwest;" vertex="1" parent="aYBez-xFLwSCWmGJiX5v-250">
          <mxGeometry y="456" width="940" height="92" as="geometry" />
        </mxCell>
        <mxCell id="aYBez-xFLwSCWmGJiX5v-267" value="Normal Flow" style="shape=partialRectangle;html=1;whiteSpace=wrap;connectable=0;strokeColor=inherit;overflow=hidden;fillColor=none;top=0;left=0;bottom=0;right=0;pointerEvents=1;" vertex="1" parent="aYBez-xFLwSCWmGJiX5v-266">
          <mxGeometry width="226" height="92" as="geometry">
            <mxRectangle width="226" height="92" as="alternateBounds" />
          </mxGeometry>
        </mxCell>
        <mxCell id="aYBez-xFLwSCWmGJiX5v-268" value="" style="shape=partialRectangle;html=1;whiteSpace=wrap;connectable=0;strokeColor=inherit;overflow=hidden;fillColor=none;top=0;left=0;bottom=0;right=0;pointerEvents=1;" vertex="1" parent="aYBez-xFLwSCWmGJiX5v-266">
          <mxGeometry x="226" width="714" height="92" as="geometry">
            <mxRectangle width="714" height="92" as="alternateBounds" />
          </mxGeometry>
        </mxCell>
        <mxCell id="aYBez-xFLwSCWmGJiX5v-269" value="" style="shape=tableRow;horizontal=0;startSize=0;swimlaneHead=0;swimlaneBody=0;strokeColor=inherit;top=0;left=0;bottom=0;right=0;collapsible=0;dropTarget=0;fillColor=none;points=[[0,0.5],[1,0.5]];portConstraint=eastwest;" vertex="1" parent="aYBez-xFLwSCWmGJiX5v-250">
          <mxGeometry y="548" width="940" height="91" as="geometry" />
        </mxCell>
        <mxCell id="aYBez-xFLwSCWmGJiX5v-270" value="Exceptions" style="shape=partialRectangle;html=1;whiteSpace=wrap;connectable=0;strokeColor=inherit;overflow=hidden;fillColor=none;top=0;left=0;bottom=0;right=0;pointerEvents=1;" vertex="1" parent="aYBez-xFLwSCWmGJiX5v-269">
          <mxGeometry width="226" height="91" as="geometry">
            <mxRectangle width="226" height="91" as="alternateBounds" />
          </mxGeometry>
        </mxCell>
        <mxCell id="aYBez-xFLwSCWmGJiX5v-271" value="" style="shape=partialRectangle;html=1;whiteSpace=wrap;connectable=0;strokeColor=inherit;overflow=hidden;fillColor=none;top=0;left=0;bottom=0;right=0;pointerEvents=1;" vertex="1" parent="aYBez-xFLwSCWmGJiX5v-269">
          <mxGeometry x="226" width="714" height="91" as="geometry">
            <mxRectangle width="714" height="91" as="alternateBounds" />
          </mxGeometry>
        </mxCell>
        <mxCell id="aYBez-xFLwSCWmGJiX5v-272" value="" style="shape=tableRow;horizontal=0;startSize=0;swimlaneHead=0;swimlaneBody=0;strokeColor=inherit;top=0;left=0;bottom=0;right=0;collapsible=0;dropTarget=0;fillColor=none;points=[[0,0.5],[1,0.5]];portConstraint=eastwest;" vertex="1" parent="aYBez-xFLwSCWmGJiX5v-250">
          <mxGeometry y="639" width="940" height="91" as="geometry" />
        </mxCell>
        <mxCell id="aYBez-xFLwSCWmGJiX5v-273" value="Alternative Flow" style="shape=partialRectangle;html=1;whiteSpace=wrap;connectable=0;strokeColor=inherit;overflow=hidden;fillColor=none;top=0;left=0;bottom=0;right=0;pointerEvents=1;" vertex="1" parent="aYBez-xFLwSCWmGJiX5v-272">
          <mxGeometry width="226" height="91" as="geometry">
            <mxRectangle width="226" height="91" as="alternateBounds" />
          </mxGeometry>
        </mxCell>
        <mxCell id="aYBez-xFLwSCWmGJiX5v-274" value="" style="shape=partialRectangle;html=1;whiteSpace=wrap;connectable=0;strokeColor=inherit;overflow=hidden;fillColor=none;top=0;left=0;bottom=0;right=0;pointerEvents=1;" vertex="1" parent="aYBez-xFLwSCWmGJiX5v-272">
          <mxGeometry x="226" width="714" height="91" as="geometry">
            <mxRectangle width="714" height="91" as="alternateBounds" />
          </mxGeometry>
        </mxCell>
      </root>
    </mxGraphModel>
  </diagram>
</mxfile>
